<?xml version="1.0" encoding="UTF-8" standalone="no"?>
<!DOCTYPE svg PUBLIC "-//W3C//DTD SVG 20010904//EN"
              "http://www.w3.org/TR/2001/REC-SVG-20010904/DTD/svg10.dtd">

<svg xmlns="http://www.w3.org/2000/svg"
     width="361.263mm" height="361.263mm"
     viewBox="0 0 2048 2048">
  <path id="Selection"
        fill="#7851a9" stroke="black" stroke-width="1"
        d="M 1000.00,40.21
           C 995.09,41.12 993.76,40.95 989.00,41.00
             973.95,41.18 947.51,47.52 933.00,52.35
             896.99,64.36 864.60,86.84 832.00,105.99
             832.00,105.99 674.00,199.69 674.00,199.69
             674.00,199.69 571.00,260.31 571.00,260.31
             571.00,260.31 393.00,365.99 393.00,365.99
             393.00,365.99 301.00,420.55 301.00,420.55
             278.98,433.76 256.08,445.66 236.00,461.80
             186.72,501.42 154.02,560.18 146.29,623.00
             146.29,623.00 144.96,646.00 144.96,646.00
             144.96,646.00 144.00,659.00 144.00,659.00
             144.00,659.00 144.00,1389.00 144.00,1389.00
             144.00,1389.00 145.00,1408.00 145.00,1408.00
             145.14,1419.38 147.06,1430.84 149.20,1442.00
             159.52,1495.82 186.70,1544.50 228.00,1580.71
             245.74,1596.27 262.15,1605.54 282.00,1617.45
             282.00,1617.45 365.00,1666.45 365.00,1666.45
             365.00,1666.45 612.00,1812.86 612.00,1812.86
             612.00,1812.86 824.00,1938.40 824.00,1938.40
             846.98,1952.02 890.69,1979.28 913.00,1989.14
             934.87,1998.80 961.22,2005.57 985.00,2007.96
             985.00,2007.96 995.00,2007.96 995.00,2007.96
             995.00,2007.96 1005.00,2009.00 1005.00,2009.00
             1005.00,2009.00 1021.00,2008.09 1021.00,2008.09
             1049.90,2006.10 1075.41,2000.69 1102.00,1988.70
             1128.70,1976.65 1154.59,1959.17 1180.00,1944.42
             1180.00,1944.42 1364.00,1835.45 1364.00,1835.45
             1364.00,1835.45 1443.00,1788.99 1443.00,1788.99
             1443.00,1788.99 1661.00,1659.60 1661.00,1659.60
             1661.00,1659.60 1731.00,1618.20 1731.00,1618.20
             1751.98,1605.68 1766.00,1598.09 1785.00,1581.73
             1826.33,1546.13 1855.46,1495.72 1865.39,1442.00
             1865.39,1442.00 1869.09,1407.00 1869.09,1407.00
             1869.09,1407.00 1870.00,1395.00 1870.00,1395.00
             1870.00,1395.00 1870.00,655.00 1870.00,655.00
             1870.00,655.00 1869.09,643.00 1869.09,643.00
             1869.09,643.00 1867.71,622.00 1867.71,622.00
             1862.08,576.79 1843.30,533.31 1814.61,498.00
             1809.87,492.17 1801.30,482.05 1796.00,477.09
             1774.18,456.67 1760.68,449.18 1736.00,434.09
             1736.00,434.09 1660.00,388.99 1660.00,388.99
             1660.00,388.99 1527.00,310.01 1527.00,310.01
             1527.00,310.01 1428.00,251.55 1428.00,251.55
             1428.00,251.55 1271.00,158.55 1271.00,158.55
             1271.00,158.55 1165.00,95.72 1165.00,95.72
             1144.78,84.05 1125.26,71.07 1104.00,61.31
             1080.38,50.47 1054.88,43.64 1029.00,41.04
             1029.00,41.04 1020.00,41.04 1020.00,41.04
             1020.00,41.04 1006.00,40.21 1006.00,40.21
             1006.00,40.21 1000.00,40.21 1000.00,40.21 Z
           M 991.00,79.09
           C 991.00,79.09 998.00,79.09 998.00,79.09
             998.00,79.09 1016.00,79.09 1016.00,79.09
             1040.46,79.04 1070.86,88.14 1093.00,98.31
             1093.00,98.31 1141.00,126.10 1141.00,126.10
             1141.00,126.10 1224.00,175.15 1224.00,175.15
             1224.00,175.15 1289.00,213.69 1289.00,213.69
             1289.00,213.69 1400.00,279.55 1400.00,279.55
             1400.00,279.55 1569.00,379.55 1569.00,379.55
             1569.00,379.55 1690.00,451.20 1690.00,451.20
             1710.65,463.59 1732.86,475.21 1752.00,489.75
             1780.47,511.37 1802.58,542.12 1816.14,575.00
             1820.26,585.00 1824.60,598.42 1826.79,609.00
             1827.26,611.26 1828.70,621.30 1823.27,618.83
             1823.27,618.83 1809.96,602.00 1809.96,602.00
             1798.40,589.91 1782.90,582.03 1766.00,582.00
             1766.00,582.00 1756.00,582.00 1756.00,582.00
             1736.50,582.23 1714.22,594.25 1698.00,604.19
             1698.00,604.19 1649.00,634.31 1649.00,634.31
             1649.00,634.31 1582.00,675.42 1582.00,675.42
             1582.00,675.42 1449.00,757.58 1449.00,757.58
             1449.00,757.58 1126.00,956.58 1126.00,956.58
             1093.00,977.13 1062.41,994.38 1035.04,1023.00
             1014.64,1044.32 998.30,1072.96 992.28,1102.00
             990.29,1111.64 989.58,1121.23 988.91,1131.00
             988.91,1131.00 988.00,1143.00 988.00,1143.00
             988.00,1143.00 988.00,1868.00 988.00,1868.00
             988.04,1892.16 994.91,1922.11 1010.46,1941.00
             1016.62,1948.48 1023.57,1953.55 1032.00,1958.16
             1034.36,1959.46 1039.19,1961.43 1038.26,1964.90
             1037.39,1968.09 1031.75,1968.56 1029.00,1968.96
             1029.00,1968.96 1020.00,1968.96 1020.00,1968.96
             1020.00,1968.96 1000.00,1970.00 1000.00,1970.00
             1000.00,1970.00 990.00,1969.09 990.00,1969.09
             990.00,1969.09 974.00,1967.71 974.00,1967.71
             957.49,1965.16 932.95,1956.67 918.00,1949.19
             918.00,1949.19 907.00,1942.86 907.00,1942.86
             907.00,1942.86 864.00,1917.45 864.00,1917.45
             864.00,1917.45 806.00,1883.55 806.00,1883.55
             806.00,1883.55 777.00,1866.01 777.00,1866.01
             777.00,1866.01 365.00,1622.01 365.00,1622.01
             365.00,1622.01 304.00,1586.01 304.00,1586.01
             291.39,1578.60 272.01,1567.51 261.00,1558.54
             226.84,1530.69 203.93,1497.17 191.28,1455.00
             187.91,1443.77 183.14,1422.43 183.00,1411.00
             183.00,1411.00 182.00,1389.00 182.00,1389.00
             182.00,1389.00 182.00,663.00 182.00,663.00
             182.00,663.00 182.96,651.00 182.96,651.00
             182.96,651.00 182.96,637.00 182.96,637.00
             183.12,627.18 187.77,605.83 190.58,596.00
             202.56,554.01 228.89,514.61 264.00,488.48
             282.23,474.91 302.52,464.30 322.00,452.69
             322.00,452.69 411.00,399.99 411.00,399.99
             411.00,399.99 623.00,274.01 623.00,274.01
             623.00,274.01 734.00,208.55 734.00,208.55
             734.00,208.55 864.00,131.67 864.00,131.67
             885.74,119.13 906.80,104.18 930.00,94.42
             952.17,85.10 967.68,82.64 991.00,79.09 Z
           M 1270.00,1181.00
           C 1281.68,1176.96 1295.59,1173.02 1308.00,1173.00
             1313.86,1172.99 1326.23,1173.27 1330.61,1177.43
             1335.67,1182.24 1333.91,1190.11 1332.29,1196.00
             1332.29,1196.00 1323.37,1232.00 1323.37,1232.00
             1321.73,1238.36 1319.50,1246.31 1313.96,1250.35
             1306.45,1255.82 1296.46,1250.58 1288.00,1251.18
             1264.69,1252.85 1237.05,1265.17 1222.75,1284.00
             1211.58,1298.70 1199.59,1330.16 1217.04,1344.61
             1225.86,1351.91 1244.88,1352.87 1256.00,1353.00
             1256.00,1353.00 1266.00,1353.91 1266.00,1353.91
             1284.25,1355.16 1297.41,1355.78 1314.00,1365.17
             1332.40,1375.59 1340.79,1392.00 1344.80,1412.00
             1345.89,1417.45 1346.93,1421.36 1347.00,1427.00
             1347.00,1427.00 1347.00,1454.00 1347.00,1454.00
             1346.99,1462.46 1346.44,1461.43 1345.27,1469.00
             1341.08,1496.16 1331.90,1519.37 1317.99,1543.00
             1309.87,1556.80 1299.81,1569.31 1288.91,1581.00
             1285.42,1584.75 1273.03,1595.48 1271.92,1599.00
             1270.91,1601.34 1271.99,1609.58 1271.92,1613.00
             1271.92,1613.00 1271.92,1646.00 1271.92,1646.00
             1271.97,1661.59 1265.60,1665.62 1253.00,1672.85
             1253.00,1672.85 1240.00,1680.42 1240.00,1680.42
             1234.66,1683.48 1226.20,1689.35 1220.42,1684.30
             1217.27,1681.55 1217.05,1676.87 1217.00,1673.00
             1217.00,1673.00 1217.00,1649.00 1217.00,1649.00
             1217.00,1649.00 1216.00,1629.00 1216.00,1629.00
             1216.00,1629.00 1204.00,1632.37 1204.00,1632.37
             1190.86,1635.77 1188.43,1636.17 1175.00,1637.09
             1171.85,1637.30 1170.31,1637.93 1167.00,1637.68
             1157.63,1636.98 1141.74,1636.17 1141.04,1624.00
             1140.65,1617.13 1142.87,1610.56 1144.53,1604.00
             1144.53,1604.00 1151.77,1574.00 1151.77,1574.00
             1153.36,1567.44 1155.39,1560.57 1162.00,1557.31
             1167.37,1554.67 1173.55,1556.89 1179.00,1558.00
             1184.72,1559.15 1187.25,1559.06 1193.00,1559.00
             1225.22,1558.62 1264.11,1533.43 1275.30,1503.00
             1280.55,1488.74 1284.98,1465.60 1273.79,1453.04
             1270.09,1448.89 1264.17,1445.45 1259.00,1443.47
             1248.57,1439.46 1235.00,1440.12 1224.00,1440.00
             1211.40,1439.85 1193.78,1437.08 1182.00,1432.63
             1149.14,1420.20 1141.64,1387.47 1142.00,1356.00
             1142.00,1356.00 1142.83,1347.00 1142.83,1347.00
             1145.79,1316.44 1155.11,1288.15 1171.42,1262.00
             1179.07,1249.74 1188.25,1238.54 1198.09,1228.00
             1201.86,1223.96 1212.89,1215.09 1214.85,1211.28
             1215.40,1209.37 1215.00,1204.31 1214.85,1202.00
             1214.85,1202.00 1214.85,1164.00 1214.85,1164.00
             1215.01,1157.76 1215.54,1152.43 1219.13,1147.04
             1222.76,1141.60 1238.75,1132.47 1245.00,1128.58
             1250.37,1125.23 1258.53,1118.24 1264.87,1122.74
             1271.11,1127.16 1268.92,1144.74 1269.00,1152.00
             1269.00,1152.00 1270.00,1166.00 1270.00,1166.00
             1270.00,1166.00 1270.00,1181.00 1270.00,1181.00 Z
           M 1588.00,1464.42
           C 1591.40,1464.01 1594.67,1463.83 1596.69,1467.23
             1598.19,1469.75 1598.00,1474.11 1598.00,1477.00
             1598.00,1477.00 1598.00,1503.00 1598.00,1503.00
             1597.99,1507.59 1598.06,1511.73 1595.59,1515.83
             1592.02,1521.76 1572.84,1532.32 1566.00,1536.40
             1566.00,1536.40 1463.00,1598.69 1463.00,1598.69
             1463.00,1598.69 1441.00,1612.06 1441.00,1612.06
             1438.02,1613.88 1433.69,1616.94 1430.02,1616.39
             1423.83,1615.45 1424.01,1608.75 1424.00,1604.00
             1424.00,1604.00 1424.00,1574.00 1424.00,1574.00
             1424.01,1570.14 1423.77,1566.45 1425.85,1563.00
             1428.69,1558.30 1433.48,1556.09 1438.00,1553.40
             1438.00,1553.40 1460.00,1540.01 1460.00,1540.01
             1460.00,1540.01 1545.00,1489.40 1545.00,1489.40
             1545.00,1489.40 1570.00,1474.47 1570.00,1474.47
             1575.63,1470.92 1581.69,1466.56 1588.00,1464.42 Z" />
</svg>
