<?xml version="1.0" encoding="UTF-8" standalone="no"?>
<!DOCTYPE svg PUBLIC "-//W3C//DTD SVG 20010904//EN"
              "http://www.w3.org/TR/2001/REC-SVG-20010904/DTD/svg10.dtd">

<svg xmlns="http://www.w3.org/2000/svg"
     width="361.263mm" height="361.263mm"
     viewBox="0 0 2048 2048">
  <path id="Selection"
        fill="#7851a9" stroke="black" stroke-width="1"
        d="M 820.00,110.00
           C 814.73,109.55 809.58,114.32 804.91,116.71
             804.91,116.71 795.17,121.44 795.17,121.44
             795.17,121.44 784.00,128.36 784.00,128.36
             784.00,128.36 774.08,133.29 774.08,133.29
             774.08,133.29 767.96,137.29 767.96,137.29
             767.96,137.29 755.41,143.92 755.41,143.92
             755.41,143.92 749.99,147.67 749.99,147.67
             749.99,147.67 734.91,155.33 734.91,155.33
             734.91,155.33 707.83,171.22 707.83,171.22
             707.83,171.22 697.17,176.44 697.17,176.44
             697.17,176.44 673.00,190.86 673.00,190.86
             673.00,190.86 657.41,198.92 657.41,198.92
             657.41,198.92 633.00,213.17 633.00,213.17
             633.00,213.17 623.04,218.20 623.04,218.20
             616.97,221.79 608.96,228.03 602.00,229.00
             598.77,234.70 586.00,238.65 579.99,242.49
             579.99,242.49 559.41,253.90 559.41,253.90
             559.41,253.90 528.09,271.57 528.09,271.57
             520.21,275.80 512.86,282.00 504.00,284.00
             500.69,289.68 487.90,293.72 481.99,297.49
             481.99,297.49 429.92,326.83 429.92,326.83
             422.16,331.10 414.82,337.01 406.00,339.00
             402.97,343.96 392.88,347.45 387.71,350.81
             387.71,350.81 374.17,358.08 374.17,358.08
             374.17,358.08 363.00,365.12 363.00,365.12
             363.00,365.12 355.04,369.01 355.04,369.01
             355.04,369.01 340.00,377.76 340.00,377.76
             340.00,377.76 331.08,382.29 331.08,382.29
             331.08,382.29 308.00,396.12 308.00,396.12
             308.00,396.12 291.41,404.76 291.41,404.76
             291.41,404.76 284.01,409.42 284.01,409.42
             284.01,409.42 276.08,413.29 276.08,413.29
             276.08,413.29 267.00,419.17 267.00,419.17
             267.00,419.17 255.00,425.09 255.00,425.09
             255.00,425.09 210.00,451.12 210.00,451.12
             210.00,451.12 201.00,455.54 201.00,455.54
             201.00,455.54 178.51,469.50 178.51,469.50
             149.93,490.33 125.27,523.98 115.31,558.00
             115.31,558.00 111.27,569.17 111.27,569.17
             111.27,569.17 110.74,575.00 110.74,575.00
             110.74,575.00 109.06,581.00 109.06,581.00
             109.06,581.00 109.06,588.00 109.06,588.00
             108.21,593.92 107.02,591.37 107.00,601.00
             107.00,601.00 107.00,1444.00 107.00,1444.00
             107.02,1454.05 108.33,1451.82 109.08,1458.00
             109.08,1458.00 109.08,1467.00 109.08,1467.00
             110.63,1475.38 115.43,1493.00 118.63,1500.83
             118.63,1500.83 126.04,1516.03 126.04,1516.03
             126.04,1516.03 130.43,1524.92 130.43,1524.92
             130.43,1524.92 138.18,1536.15 138.18,1536.15
             138.18,1536.15 141.48,1541.42 141.48,1541.42
             141.48,1541.42 147.79,1548.41 147.79,1548.41
             147.79,1548.41 151.76,1553.99 151.76,1553.99
             151.76,1553.99 166.52,1568.71 166.52,1568.71
             166.52,1568.71 172.68,1572.75 172.68,1572.75
             172.68,1572.75 177.76,1577.77 177.76,1577.77
             177.76,1577.77 210.00,1596.88 210.00,1596.88
             210.00,1596.88 215.91,1600.67 215.91,1600.67
             215.91,1600.67 223.59,1604.32 223.59,1604.32
             223.59,1604.32 263.28,1626.86 263.28,1626.86
             268.70,1629.57 272.95,1633.58 279.00,1634.00
             279.00,1634.00 279.00,1637.00 279.00,1637.00
             286.34,1638.66 285.91,1640.24 291.41,1643.23
             291.41,1643.23 308.00,1651.88 308.00,1651.88
             308.00,1651.88 313.91,1655.67 313.91,1655.67
             313.91,1655.67 323.99,1660.97 323.99,1660.97
             323.99,1660.97 331.92,1666.17 331.92,1666.17
             331.92,1666.17 347.91,1674.38 347.91,1674.38
             347.91,1674.38 355.04,1678.98 355.04,1678.98
             355.04,1678.98 365.00,1683.83 365.00,1683.83
             365.00,1683.83 375.75,1690.53 375.75,1690.53
             375.75,1690.53 384.82,1694.96 384.82,1694.96
             384.82,1694.96 389.50,1698.24 389.50,1698.24
             389.50,1698.24 406.00,1706.88 406.00,1706.88
             406.00,1706.88 411.91,1710.67 411.91,1710.67
             411.91,1710.67 422.96,1716.55 422.96,1716.55
             422.96,1716.55 429.92,1721.17 429.92,1721.17
             429.92,1721.17 444.96,1728.71 444.96,1728.71
             444.96,1728.71 453.04,1733.98 453.04,1733.98
             453.04,1733.98 461.00,1737.88 461.00,1737.88
             461.00,1737.88 472.17,1744.58 472.17,1744.58
             472.17,1744.58 482.82,1749.80 482.82,1749.80
             482.82,1749.80 487.50,1753.23 487.50,1753.23
             487.50,1753.23 500.91,1760.24 500.91,1760.24
             500.91,1760.24 507.09,1764.46 507.09,1764.46
             507.09,1764.46 519.00,1770.39 519.00,1770.39
             519.00,1770.39 527.08,1775.71 527.08,1775.71
             527.08,1775.71 536.00,1780.10 536.00,1780.10
             536.00,1780.10 542.41,1784.24 542.41,1784.24
             542.41,1784.24 558.99,1792.72 558.99,1792.72
             558.99,1792.72 582.08,1806.70 582.08,1806.70
             582.08,1806.70 597.96,1814.72 597.96,1814.72
             597.96,1814.72 604.08,1818.71 604.08,1818.71
             604.08,1818.71 613.99,1824.01 613.99,1824.01
             613.99,1824.01 625.17,1830.72 625.17,1830.72
             625.17,1830.72 635.82,1835.95 635.82,1835.95
             635.82,1835.95 648.09,1843.43 648.09,1843.43
             648.09,1843.43 656.00,1847.10 656.00,1847.10
             656.00,1847.10 662.42,1851.32 662.42,1851.32
             662.42,1851.32 673.96,1857.59 673.96,1857.59
             673.96,1857.59 679.28,1861.20 679.28,1861.20
             679.28,1861.20 694.99,1869.25 694.99,1869.25
             702.20,1872.76 714.54,1882.49 722.00,1883.00
             722.00,1883.00 722.00,1886.00 722.00,1886.00
             730.23,1887.85 751.25,1901.89 760.42,1906.44
             765.18,1908.81 774.35,1912.66 777.00,1917.00
             781.93,1918.11 800.75,1928.99 807.00,1932.29
             812.34,1935.10 813.87,1937.58 820.00,1938.00
             820.00,1938.00 820.00,1941.00 820.00,1941.00
             827.04,1942.59 826.96,1944.12 832.42,1947.31
             832.42,1947.31 848.00,1955.33 848.00,1955.33
             848.00,1955.33 858.42,1961.44 858.42,1961.44
             863.18,1963.81 872.35,1967.66 875.00,1972.00
             882.17,1973.62 890.39,1979.70 897.00,1983.36
             897.00,1983.36 905.00,1987.29 905.00,1987.29
             910.34,1990.10 911.87,1992.58 918.00,1993.00
             918.00,1993.00 918.00,1996.00 918.00,1996.00
             925.10,1997.60 924.95,1999.14 930.42,2002.31
             930.42,2002.31 942.75,2008.59 942.75,2008.59
             942.75,2008.59 963.00,2016.29 963.00,2016.29
             963.00,2016.29 970.00,2017.54 970.00,2017.54
             970.00,2017.54 984.00,2021.55 984.00,2021.55
             1001.83,2025.39 1020.76,2024.03 1039.00,2024.00
             1039.00,2024.00 1071.00,2020.00 1071.00,2020.00
             1071.00,2020.00 1071.00,2017.00 1071.00,2017.00
             1081.03,2016.90 1084.29,2014.26 1093.00,2010.75
             1099.24,2008.23 1105.80,2005.60 1111.59,2002.10
             1111.59,2002.10 1125.25,1993.85 1125.25,1993.85
             1125.25,1993.85 1144.99,1983.37 1144.99,1983.37
             1151.04,1979.95 1160.28,1972.95 1167.00,1972.00
             1169.62,1967.51 1178.72,1963.85 1183.58,1961.44
             1183.58,1961.44 1193.00,1955.88 1193.00,1955.88
             1193.00,1955.88 1208.72,1947.74 1208.72,1947.74
             1214.50,1944.51 1214.38,1942.71 1222.00,1941.00
             1222.00,1941.00 1222.00,1938.00 1222.00,1938.00
             1228.13,1937.58 1229.66,1935.10 1235.00,1932.29
             1235.00,1932.29 1243.00,1928.36 1243.00,1928.36
             1249.61,1924.70 1257.83,1918.62 1265.00,1917.00
             1267.65,1912.66 1276.82,1908.81 1281.58,1906.44
             1291.56,1901.49 1310.66,1888.10 1320.00,1886.00
             1320.00,1886.00 1320.00,1883.00 1320.00,1883.00
             1326.13,1882.58 1327.66,1880.10 1333.00,1877.29
             1340.81,1873.17 1355.31,1863.74 1363.00,1862.00
             1365.66,1857.63 1374.80,1853.84 1379.57,1851.44
             1389.90,1846.26 1407.90,1833.27 1418.00,1831.00
             1418.00,1831.00 1418.00,1828.00 1418.00,1828.00
             1424.07,1827.58 1426.58,1824.60 1431.91,1821.78
             1431.91,1821.78 1460.00,1805.49 1460.00,1805.49
             1460.00,1805.49 1470.00,1800.47 1470.00,1800.47
             1470.00,1800.47 1484.00,1792.10 1484.00,1792.10
             1484.00,1792.10 1499.50,1784.24 1499.50,1784.24
             1499.50,1784.24 1504.18,1780.80 1504.18,1780.80
             1504.18,1780.80 1514.72,1775.74 1514.72,1775.74
             1514.72,1775.74 1524.00,1769.80 1524.00,1769.80
             1524.00,1769.80 1535.08,1764.18 1535.08,1764.18
             1535.08,1764.18 1542.04,1759.72 1542.04,1759.72
             1542.04,1759.72 1557.92,1751.71 1557.92,1751.71
             1557.92,1751.71 1582.00,1737.10 1582.00,1737.10
             1582.00,1737.10 1590.92,1732.71 1590.92,1732.71
             1590.92,1732.71 1602.17,1725.78 1602.17,1725.78
             1602.17,1725.78 1612.83,1720.70 1612.83,1720.70
             1612.83,1720.70 1624.00,1713.64 1624.00,1713.64
             1624.00,1713.64 1632.91,1709.43 1632.91,1709.43
             1632.91,1709.43 1639.09,1705.24 1639.09,1705.24
             1639.09,1705.24 1651.75,1698.56 1651.75,1698.56
             1651.75,1698.56 1657.04,1694.88 1657.04,1694.88
             1657.04,1694.88 1667.83,1689.56 1667.83,1689.56
             1667.83,1689.56 1679.00,1682.69 1679.00,1682.69
             1679.00,1682.69 1687.91,1678.45 1687.91,1678.45
             1687.91,1678.45 1694.95,1673.73 1694.95,1673.73
             1694.95,1673.73 1709.25,1666.53 1709.25,1666.53
             1709.25,1666.53 1719.99,1659.83 1719.99,1659.83
             1719.99,1659.83 1729.04,1655.12 1729.04,1655.12
             1729.04,1655.12 1735.00,1651.22 1735.00,1651.22
             1735.00,1651.22 1750.59,1643.10 1750.59,1643.10
             1750.59,1643.10 1775.00,1628.83 1775.00,1628.83
             1775.00,1628.83 1783.99,1624.44 1783.99,1624.44
             1783.99,1624.44 1792.09,1619.22 1792.09,1619.22
             1792.09,1619.22 1807.25,1611.52 1807.25,1611.52
             1807.25,1611.52 1817.99,1604.83 1817.99,1604.83
             1817.99,1604.83 1853.83,1584.55 1853.83,1584.55
             1853.83,1584.55 1861.16,1578.83 1861.16,1578.83
             1873.83,1569.94 1877.26,1567.29 1888.14,1556.14
             1892.98,1551.18 1895.66,1544.52 1902.00,1541.00
             1903.35,1535.57 1906.92,1532.17 1909.82,1527.42
             1909.82,1527.42 1919.43,1509.00 1919.43,1509.00
             1928.27,1491.40 1933.97,1467.65 1934.00,1448.00
             1934.00,1448.00 1934.00,1024.00 1934.00,1024.00
             1934.00,1024.00 1934.00,602.00 1934.00,602.00
             1933.97,580.32 1928.90,558.58 1919.46,539.00
             1919.46,539.00 1909.26,519.72 1909.26,519.72
             1906.31,514.88 1903.39,512.58 1902.00,507.00
             1896.00,503.65 1893.70,497.82 1889.54,493.16
             1889.54,493.16 1875.82,479.43 1875.82,479.43
             1875.82,479.43 1869.48,475.33 1869.48,475.33
             1866.90,473.28 1867.02,471.99 1861.96,468.66
             1861.96,468.66 1840.91,455.54 1840.91,455.54
             1840.91,455.54 1832.00,451.12 1832.00,451.12
             1832.00,451.12 1808.92,437.29 1808.92,437.29
             1808.92,437.29 1799.00,432.36 1799.00,432.36
             1799.00,432.36 1784.96,424.01 1784.96,424.01
             1784.96,424.01 1773.01,418.03 1773.01,418.03
             1773.01,418.03 1765.92,413.29 1765.92,413.29
             1765.92,413.29 1757.99,409.42 1757.99,409.42
             1757.99,409.42 1750.59,404.76 1750.59,404.76
             1750.59,404.76 1734.00,396.12 1734.00,396.12
             1734.00,396.12 1728.00,392.10 1728.00,392.10
             1728.00,392.10 1718.01,386.96 1718.01,386.96
             1718.01,386.96 1710.92,382.29 1710.92,382.29
             1710.92,382.29 1694.09,373.76 1694.09,373.76
             1694.09,373.76 1688.83,370.09 1688.83,370.09
             1688.83,370.09 1679.00,365.12 1679.00,365.12
             1679.00,365.12 1667.83,358.08 1667.83,358.08
             1667.83,358.08 1654.29,350.81 1654.29,350.81
             1649.05,347.40 1638.97,344.08 1636.00,339.00
             1627.84,337.16 1606.51,323.49 1597.59,318.75
             1597.59,318.75 1565.00,300.86 1565.00,300.86
             1565.00,300.86 1558.09,296.33 1558.09,296.33
             1558.09,296.33 1541.09,287.76 1541.09,287.76
             1541.09,287.76 1510.00,269.83 1510.00,269.83
             1510.00,269.83 1500.43,264.22 1500.43,264.22
             1500.43,264.22 1486.00,256.71 1486.00,256.71
             1480.66,253.90 1479.13,251.42 1473.00,251.00
             1473.00,251.00 1473.00,248.00 1473.00,248.00
             1465.97,246.41 1465.76,244.53 1460.09,241.33
             1460.09,241.33 1444.04,233.28 1444.04,233.28
             1444.04,233.28 1437.83,229.10 1437.83,229.10
             1437.83,229.10 1432.00,226.23 1432.00,226.23
             1426.44,223.44 1424.26,220.43 1418.00,220.00
             1418.00,220.00 1418.00,217.00 1418.00,217.00
             1411.20,215.47 1391.39,203.18 1384.59,198.92
             1384.59,198.92 1377.92,195.68 1377.92,195.68
             1377.92,195.68 1362.58,186.69 1362.58,186.69
             1362.58,186.69 1350.09,179.87 1350.09,179.87
             1350.09,179.87 1332.00,170.17 1332.00,170.17
             1327.50,167.70 1325.22,164.79 1320.00,165.00
             1318.42,161.02 1315.65,161.03 1312.04,158.71
             1312.04,158.71 1292.00,147.67 1292.00,147.67
             1292.00,147.67 1285.09,143.33 1285.09,143.33
             1285.09,143.33 1270.01,135.41 1270.01,135.41
             1270.01,135.41 1246.00,121.09 1246.00,121.09
             1246.00,121.09 1237.00,116.67 1237.00,116.67
             1237.00,116.67 1223.91,108.69 1223.91,108.69
             1223.91,108.69 1216.00,104.90 1216.00,104.90
             1216.00,104.90 1209.58,100.69 1209.58,100.69
             1209.58,100.69 1193.00,92.12 1193.00,92.12
             1193.00,92.12 1169.92,78.29 1169.92,78.29
             1169.92,78.29 1161.00,73.91 1161.00,73.91
             1161.00,73.91 1146.91,65.53 1146.91,65.53
             1146.91,65.53 1138.00,61.12 1138.00,61.12
             1115.00,47.84 1106.89,41.73 1081.00,32.31
             1081.00,32.31 1070.00,28.45 1070.00,28.45
             1070.00,28.45 1059.00,25.96 1059.00,25.96
             1059.00,25.96 1052.00,25.96 1052.00,25.96
             1045.55,24.90 1048.66,24.02 1039.00,24.00
             1039.00,24.00 1002.00,24.00 1002.00,24.00
             992.37,24.02 994.92,25.21 989.00,26.06
             989.00,26.06 982.00,26.06 982.00,26.06
             975.93,27.25 960.66,31.78 955.00,34.14
             955.00,34.14 949.01,37.12 949.01,37.12
             949.01,37.12 937.00,42.08 937.00,42.08
             937.00,42.08 924.00,49.90 924.00,49.90
             924.00,49.90 909.25,57.43 909.25,57.43
             909.25,57.43 902.00,62.16 902.00,62.16
             902.00,62.16 887.42,69.68 887.42,69.68
             887.42,69.68 881.00,73.90 881.00,73.90
             881.00,73.90 872.08,78.29 872.08,78.29
             872.08,78.29 859.91,85.57 859.91,85.57
             859.91,85.57 850.17,90.30 850.17,90.30
             850.17,90.30 841.00,96.21 841.00,96.21
             841.00,96.21 826.99,104.33 826.99,104.33
             823.61,106.37 821.53,106.15 820.00,110.00 Z
           M 1301.00,584.00
           C 1306.59,584.79 1310.91,588.74 1315.42,591.96
             1315.42,591.96 1332.42,603.83 1332.42,603.83
             1332.42,603.83 1342.32,611.64 1342.32,611.64
             1342.32,611.64 1348.83,615.86 1348.83,615.86
             1348.83,615.86 1356.43,623.03 1356.43,623.03
             1356.43,623.03 1363.70,628.59 1363.70,628.59
             1363.70,628.59 1378.89,643.54 1378.89,643.54
             1378.89,643.54 1386.25,650.27 1386.25,650.27
             1386.25,650.27 1391.56,654.34 1391.56,654.34
             1391.56,654.34 1397.93,662.49 1397.93,662.49
             1397.93,662.49 1409.72,674.50 1409.72,674.50
             1413.10,677.82 1428.05,695.30 1430.10,698.83
             1432.86,703.19 1440.13,709.19 1430.10,710.00
             1429.52,711.39 1429.60,711.96 1428.43,713.13
             1428.43,713.13 1411.00,723.17 1411.00,723.17
             1411.00,723.17 1397.91,731.12 1397.91,731.12
             1397.91,731.12 1388.00,736.09 1388.00,736.09
             1388.00,736.09 1370.17,746.25 1370.17,746.25
             1364.05,749.46 1364.00,751.95 1356.00,753.00
             1354.04,758.18 1344.19,761.37 1339.41,764.28
             1339.41,764.28 1333.00,768.43 1333.00,768.43
             1333.00,768.43 1324.08,772.81 1324.08,772.81
             1324.08,772.81 1297.58,788.45 1297.58,788.45
             1290.96,791.83 1289.90,794.97 1282.00,796.00
             1282.00,796.00 1282.00,799.00 1282.00,799.00
             1276.01,799.87 1261.41,810.25 1254.29,813.62
             1252.08,814.66 1247.36,817.87 1245.21,817.35
             1243.06,816.84 1239.51,812.61 1237.91,810.96
             1237.91,810.96 1221.71,795.03 1221.71,795.03
             1221.71,795.03 1212.92,788.49 1212.92,788.49
             1212.92,788.49 1206.68,782.86 1206.68,782.86
             1206.68,782.86 1170.75,758.96 1170.75,758.96
             1170.75,758.96 1147.04,746.77 1147.04,746.77
             1147.04,746.77 1137.00,743.12 1137.00,743.12
             1137.00,743.12 1131.00,740.14 1131.00,740.14
             1123.01,736.80 1099.42,729.26 1091.00,727.45
             1091.00,727.45 1084.00,726.73 1084.00,726.73
             1084.00,726.73 1077.00,724.41 1077.00,724.41
             1077.00,724.41 1064.96,722.00 1064.96,722.00
             1064.96,722.00 1056.00,722.00 1056.00,722.00
             1050.10,721.21 1052.63,720.02 1043.00,720.00
             1043.00,720.00 997.00,720.00 997.00,720.00
             990.33,720.11 990.76,721.34 986.00,722.00
             986.00,722.00 977.00,722.00 977.00,722.00
             977.00,722.00 970.00,723.74 970.00,723.74
             970.00,723.74 963.00,724.27 963.00,724.27
             963.00,724.27 956.00,726.59 956.00,726.59
             956.00,726.59 942.00,729.54 942.00,729.54
             942.00,729.54 931.00,733.29 931.00,733.29
             931.00,733.29 924.00,734.76 924.00,734.76
             924.00,734.76 916.00,738.51 916.00,738.51
             916.00,738.51 906.09,741.50 906.09,741.50
             906.09,741.50 867.08,760.81 867.08,760.81
             867.08,760.81 855.85,768.76 855.85,768.76
             855.85,768.76 831.49,786.29 831.49,786.29
             831.49,786.29 824.52,790.94 824.52,790.94
             824.52,790.94 797.75,817.49 797.75,817.49
             797.75,817.49 787.94,827.52 787.94,827.52
             787.94,827.52 783.28,834.49 783.28,834.49
             783.28,834.49 778.83,839.18 778.83,839.18
             778.83,839.18 765.76,858.85 765.76,858.85
             765.76,858.85 757.81,870.08 757.81,870.08
             757.81,870.08 738.50,909.09 738.50,909.09
             738.50,909.09 735.51,919.00 735.51,919.00
             735.51,919.00 726.54,945.00 726.54,945.00
             726.54,945.00 723.59,959.00 723.59,959.00
             723.59,959.00 721.27,966.00 721.27,966.00
             721.27,966.00 720.74,973.00 720.74,973.00
             720.74,973.00 719.00,980.00 719.00,980.00
             719.00,980.00 719.00,989.00 719.00,989.00
             718.21,994.90 717.02,992.37 717.00,1002.00
             717.00,1002.00 717.00,1048.00 717.00,1048.00
             717.11,1054.67 718.34,1054.24 719.00,1059.00
             719.00,1059.00 719.00,1067.96 719.00,1067.96
             719.00,1067.96 720.99,1074.17 720.99,1074.17
             720.99,1074.17 720.99,1081.00 720.99,1081.00
             720.99,1081.00 723.51,1088.00 723.51,1088.00
             723.51,1088.00 726.54,1103.00 726.54,1103.00
             729.40,1112.59 737.73,1132.21 738.00,1141.00
             738.00,1141.00 741.00,1141.00 741.00,1141.00
             742.00,1148.84 749.26,1160.51 753.05,1168.09
             753.05,1168.09 757.32,1177.08 757.32,1177.08
             757.32,1177.08 779.86,1209.68 779.86,1209.68
             779.86,1209.68 785.63,1215.92 785.63,1215.92
             785.63,1215.92 791.36,1223.99 791.36,1223.99
             791.36,1223.99 818.14,1250.86 818.14,1250.86
             824.02,1256.69 822.86,1254.41 827.57,1258.09
             827.57,1258.09 834.51,1264.50 834.51,1264.50
             834.51,1264.50 842.72,1270.47 842.72,1270.47
             846.32,1273.37 849.39,1273.76 851.00,1278.00
             851.00,1278.00 854.91,1278.85 854.91,1278.85
             854.91,1278.85 868.43,1286.87 868.43,1286.87
             868.43,1286.87 870.00,1290.00 870.00,1290.00
             877.44,1290.97 896.82,1302.23 905.17,1305.97
             905.17,1305.97 922.00,1311.17 922.00,1311.17
             922.00,1311.17 942.00,1318.32 942.00,1318.32
             942.00,1318.32 962.00,1322.74 962.00,1322.74
             962.00,1322.74 970.00,1323.30 970.00,1323.30
             970.00,1323.30 977.00,1325.92 977.00,1325.92
             977.00,1325.92 986.00,1325.92 986.00,1325.92
             991.90,1326.79 989.37,1327.98 999.00,1328.00
             999.00,1328.00 1043.00,1328.00 1043.00,1328.00
             1052.63,1327.98 1050.10,1326.79 1056.00,1325.92
             1056.00,1325.92 1065.00,1325.92 1065.00,1325.92
             1065.00,1325.92 1072.00,1323.30 1072.00,1323.30
             1072.00,1323.30 1078.00,1322.74 1078.00,1322.74
             1078.00,1322.74 1084.00,1321.26 1084.00,1321.26
             1084.00,1321.26 1099.00,1318.51 1099.00,1318.51
             1099.00,1318.51 1119.00,1311.49 1119.00,1311.49
             1119.00,1311.49 1130.00,1308.25 1130.00,1308.25
             1130.00,1308.25 1137.00,1304.88 1137.00,1304.88
             1137.00,1304.88 1143.00,1302.86 1143.00,1302.86
             1143.00,1302.86 1168.25,1290.13 1168.25,1290.13
             1168.25,1290.13 1174.17,1286.24 1174.17,1286.24
             1174.17,1286.24 1180.91,1282.90 1180.91,1282.90
             1180.91,1282.90 1198.34,1271.17 1198.34,1271.17
             1203.51,1267.20 1210.75,1260.01 1217.00,1259.00
             1218.68,1254.18 1231.75,1243.13 1236.02,1238.91
             1237.95,1237.00 1241.74,1232.16 1243.70,1231.11
             1247.73,1228.93 1251.57,1230.94 1253.00,1235.00
             1260.55,1235.99 1260.54,1237.98 1266.28,1241.28
             1266.28,1241.28 1274.00,1245.21 1274.00,1245.21
             1274.00,1245.21 1295.28,1258.20 1295.28,1258.20
             1295.28,1258.20 1323.91,1273.88 1323.91,1273.88
             1323.91,1273.88 1329.17,1277.67 1329.17,1277.67
             1329.17,1277.67 1335.68,1280.95 1335.68,1280.95
             1335.68,1280.95 1340.28,1284.21 1340.28,1284.21
             1340.28,1284.21 1353.83,1291.38 1353.83,1291.38
             1353.83,1291.38 1360.04,1295.46 1360.04,1295.46
             1360.04,1295.46 1369.00,1299.88 1369.00,1299.88
             1369.00,1299.88 1376.00,1304.58 1376.00,1304.58
             1376.00,1304.58 1392.09,1313.90 1392.09,1313.90
             1392.09,1313.90 1409.68,1323.80 1409.68,1323.80
             1409.68,1323.80 1422.04,1331.43 1422.04,1331.43
             1424.86,1332.91 1433.24,1336.80 1434.72,1339.50
             1436.25,1342.28 1433.34,1344.70 1431.81,1346.67
             1431.81,1346.67 1427.68,1352.54 1427.68,1352.54
             1427.68,1352.54 1419.24,1361.55 1419.24,1361.55
             1419.24,1361.55 1415.04,1367.91 1415.04,1367.91
             1415.04,1367.91 1396.09,1387.09 1396.09,1387.09
             1396.09,1387.09 1389.74,1394.76 1389.74,1394.76
             1389.74,1394.76 1384.18,1399.16 1384.18,1399.16
             1384.18,1399.16 1376.71,1406.58 1376.71,1406.58
             1371.14,1412.11 1363.87,1421.73 1356.00,1423.00
             1353.99,1428.78 1348.12,1431.37 1343.67,1434.83
             1343.67,1434.83 1338.49,1439.62 1338.49,1439.62
             1338.49,1439.62 1320.72,1452.31 1320.72,1452.31
             1315.86,1455.46 1313.84,1458.18 1308.00,1459.00
             1306.23,1464.04 1294.25,1470.31 1289.00,1471.00
             1287.36,1475.32 1284.87,1475.37 1281.04,1477.54
             1281.04,1477.54 1262.00,1488.20 1262.00,1488.20
             1262.00,1488.20 1239.00,1499.71 1239.00,1499.71
             1224.19,1506.58 1202.58,1514.96 1187.00,1519.69
             1187.00,1519.69 1176.00,1523.83 1176.00,1523.83
             1176.00,1523.83 1164.17,1526.54 1164.17,1526.54
             1164.17,1526.54 1153.00,1530.55 1153.00,1530.55
             1153.00,1530.55 1137.00,1533.29 1137.00,1533.29
             1137.00,1533.29 1131.00,1535.46 1131.00,1535.46
             1131.00,1535.46 1121.00,1537.74 1121.00,1537.74
             1121.00,1537.74 1113.00,1538.30 1113.00,1538.30
             1113.00,1538.30 1106.00,1540.92 1106.00,1540.92
             1106.00,1540.92 1099.00,1540.92 1099.00,1540.92
             1099.00,1540.92 1092.00,1542.87 1092.00,1542.87
             1092.00,1542.87 1081.00,1542.87 1081.00,1542.87
             1081.00,1542.87 1067.00,1545.06 1067.00,1545.06
             1067.00,1545.06 1049.04,1545.06 1049.04,1545.06
             1044.05,1545.72 1041.90,1547.98 1031.00,1548.00
             1031.00,1548.00 1009.00,1548.00 1009.00,1548.00
             996.42,1547.97 1002.58,1545.03 990.00,1544.94
             990.00,1544.94 970.00,1544.94 970.00,1544.94
             963.52,1544.15 967.18,1543.03 956.00,1543.00
             946.37,1542.98 948.92,1541.79 943.00,1540.92
             943.00,1540.92 936.00,1540.92 936.00,1540.92
             936.00,1540.92 929.00,1538.08 929.00,1538.08
             929.00,1538.08 922.00,1538.08 922.00,1538.08
             922.00,1538.08 912.00,1535.72 912.00,1535.72
             912.00,1535.72 905.00,1533.30 905.00,1533.30
             905.00,1533.30 898.00,1532.55 898.00,1532.55
             898.00,1532.55 883.00,1528.83 883.00,1528.83
             883.00,1528.83 877.00,1526.54 877.00,1526.54
             877.00,1526.54 871.00,1525.29 871.00,1525.29
             871.00,1525.29 859.00,1521.04 859.00,1521.04
             859.00,1521.04 844.00,1516.51 844.00,1516.51
             844.00,1516.51 824.58,1508.08 824.58,1508.08
             824.58,1508.08 818.00,1505.95 818.00,1505.95
             818.00,1505.95 804.00,1500.16 804.00,1500.16
             804.00,1500.16 781.00,1488.63 781.00,1488.63
             781.00,1488.63 760.96,1477.55 760.96,1477.55
             756.94,1475.35 754.61,1475.58 753.00,1471.00
             745.85,1470.53 745.36,1468.08 739.72,1464.72
             739.72,1464.72 714.03,1447.79 714.03,1447.79
             714.03,1447.79 707.83,1442.62 707.83,1442.62
             707.83,1442.62 698.34,1434.83 698.34,1434.83
             698.34,1434.83 692.99,1431.46 692.99,1431.46
             692.99,1431.46 679.01,1419.91 679.01,1419.91
             679.01,1419.91 660.99,1402.30 660.99,1402.30
             660.99,1402.30 652.41,1395.38 652.41,1395.38
             652.41,1395.38 648.61,1390.69 648.61,1390.69
             648.61,1390.69 638.39,1379.74 638.39,1379.74
             638.39,1379.74 625.59,1366.70 625.59,1366.70
             625.59,1366.70 620.03,1359.43 620.03,1359.43
             620.03,1359.43 613.87,1352.72 613.87,1352.72
             613.87,1352.72 610.17,1346.66 610.17,1346.66
             610.17,1346.66 597.20,1330.97 597.20,1330.97
             597.20,1330.97 589.58,1319.28 589.58,1319.28
             586.22,1314.53 581.83,1309.88 581.00,1304.00
             576.23,1302.19 574.62,1296.71 574.00,1292.00
             572.63,1291.48 572.26,1291.62 571.12,1290.41
             571.12,1290.41 561.73,1274.99 561.73,1274.99
             561.73,1274.99 554.91,1261.00 554.91,1261.00
             554.91,1261.00 546.14,1244.00 546.14,1244.00
             546.14,1244.00 543.92,1237.43 543.92,1237.43
             540.79,1230.05 538.30,1229.59 538.00,1220.00
             538.00,1220.00 535.00,1220.00 535.00,1220.00
             535.00,1220.00 528.86,1202.00 528.86,1202.00
             528.86,1202.00 525.29,1190.00 525.29,1190.00
             525.29,1190.00 521.44,1180.00 521.44,1180.00
             521.44,1180.00 518.46,1168.00 518.46,1168.00
             518.46,1168.00 514.45,1156.00 514.45,1156.00
             514.45,1156.00 513.54,1148.17 513.54,1148.17
             513.54,1148.17 507.45,1125.00 507.45,1125.00
             507.45,1125.00 506.70,1116.00 506.70,1116.00
             506.70,1116.00 504.08,1109.00 504.08,1109.00
             504.08,1109.00 504.08,1102.00 504.08,1102.00
             504.08,1102.00 502.00,1086.00 502.00,1086.00
             502.00,1086.00 499.89,1070.00 499.89,1070.00
             499.89,1070.00 499.89,1050.00 499.89,1050.00
             499.89,1050.00 497.00,1036.00 497.00,1036.00
             497.00,1036.00 497.00,1014.00 497.00,1014.00
             497.00,1014.00 500.00,992.00 500.00,992.00
             500.00,992.00 500.00,976.00 500.00,976.00
             500.00,976.00 502.00,961.00 502.00,961.00
             502.00,961.00 504.08,946.00 504.08,946.00
             504.08,946.00 504.08,939.00 504.08,939.00
             504.08,939.00 506.70,932.00 506.70,932.00
             506.70,932.00 507.26,924.00 507.26,924.00
             507.26,924.00 511.59,908.00 511.59,908.00
             511.59,908.00 512.26,902.00 512.26,902.00
             512.26,902.00 514.45,892.00 514.45,892.00
             514.45,892.00 518.46,880.00 518.46,880.00
             518.46,880.00 521.44,868.00 521.44,868.00
             521.44,868.00 525.59,856.83 525.59,856.83
             525.59,856.83 528.86,846.00 528.86,846.00
             528.86,846.00 532.27,838.72 532.27,838.72
             532.27,838.72 535.49,828.00 535.49,828.00
             535.49,828.00 542.12,813.83 542.12,813.83
             542.12,813.83 545.00,806.00 545.00,806.00
             545.00,806.00 559.30,777.18 559.30,777.18
             559.30,777.18 563.20,771.72 563.20,771.72
             563.20,771.72 570.24,758.15 570.24,758.15
             570.24,758.15 589.50,728.75 589.50,728.75
             589.50,728.75 596.43,718.01 596.43,718.01
             596.43,718.01 607.30,704.00 607.30,704.00
             607.30,704.00 612.84,696.17 612.84,696.17
             612.84,696.17 620.03,688.57 620.03,688.57
             620.03,688.57 628.49,678.32 628.49,678.32
             628.49,678.32 643.29,663.26 643.29,663.26
             643.29,663.26 647.28,657.58 647.28,657.58
             647.28,657.58 658.00,646.00 658.00,646.00
             663.82,644.43 668.10,638.59 672.29,634.42
             672.29,634.42 686.41,622.30 686.41,622.30
             686.41,622.30 694.09,615.09 694.09,615.09
             694.09,615.09 700.83,610.39 700.83,610.39
             700.83,610.39 715.01,599.43 715.01,599.43
             715.01,599.43 725.75,592.50 725.75,592.50
             725.75,592.50 755.15,573.24 755.15,573.24
             755.15,573.24 762.08,569.68 762.08,569.68
             762.08,569.68 774.17,562.28 774.17,562.28
             774.17,562.28 799.09,549.84 799.09,549.84
             799.09,549.84 807.57,546.92 807.57,546.92
             807.57,546.92 824.00,538.88 824.00,538.88
             824.00,538.88 835.72,535.27 835.72,535.27
             835.72,535.27 843.00,531.86 843.00,531.86
             843.00,531.86 853.83,528.59 853.83,528.59
             853.83,528.59 865.00,524.44 865.00,524.44
             865.00,524.44 877.00,521.46 877.00,521.46
             877.00,521.46 888.00,517.71 888.00,517.71
             888.00,517.71 899.00,515.26 899.00,515.26
             899.00,515.26 905.00,514.59 905.00,514.59
             905.00,514.59 911.00,512.49 911.00,512.49
             911.00,512.49 929.00,509.70 929.00,509.70
             929.00,509.70 936.00,507.08 936.00,507.08
             936.00,507.08 943.00,507.08 943.00,507.08
             950.40,506.04 944.57,505.03 959.00,505.00
             969.16,504.98 967.09,503.13 975.00,502.94
             975.00,502.94 992.00,502.94 992.00,502.94
             997.90,502.21 998.26,500.02 1011.00,500.08
             1011.00,500.08 1034.00,500.08 1034.00,500.08
             1042.74,501.02 1042.89,502.98 1053.00,503.06
             1053.00,503.06 1072.00,503.06 1072.00,503.06
             1078.48,503.85 1074.82,504.97 1086.00,505.00
             1095.63,505.02 1093.08,506.21 1099.00,507.08
             1099.00,507.08 1106.00,507.08 1106.00,507.08
             1106.00,507.08 1113.00,509.70 1113.00,509.70
             1113.00,509.70 1122.00,510.45 1122.00,510.45
             1122.00,510.45 1131.00,512.49 1131.00,512.49
             1131.00,512.49 1137.00,514.59 1137.00,514.59
             1137.00,514.59 1143.00,515.26 1143.00,515.26
             1143.00,515.26 1153.00,517.45 1153.00,517.45
             1153.00,517.45 1165.00,521.46 1165.00,521.46
             1165.00,521.46 1177.00,524.44 1177.00,524.44
             1177.00,524.44 1186.00,527.96 1186.00,527.96
             1186.00,527.96 1218.00,538.88 1218.00,538.88
             1218.00,538.88 1232.09,545.57 1232.09,545.57
             1232.09,545.57 1269.00,563.18 1269.00,563.18
             1269.00,563.18 1281.04,570.46 1281.04,570.46
             1281.04,570.46 1293.00,576.88 1293.00,576.88
             1296.54,579.30 1299.47,579.96 1301.00,584.00 Z
           M 1717.00,806.00
           C 1717.00,806.00 1717.00,883.00 1717.00,883.00
             1717.00,885.19 1716.79,888.84 1718.02,890.69
             1720.37,894.20 1732.83,893.00 1737.00,893.00
             1737.00,893.00 1797.00,893.00 1797.00,893.00
             1798.99,893.00 1802.81,892.77 1804.40,894.02
             1806.92,896.01 1806.00,908.52 1806.00,912.00
             1806.00,912.00 1806.00,971.00 1806.00,971.00
             1806.00,973.19 1806.21,976.84 1804.98,978.69
             1802.60,982.25 1788.37,981.00 1784.00,981.00
             1784.00,981.00 1717.00,981.00 1717.00,981.00
             1717.00,981.00 1717.00,1067.00 1717.00,1067.00
             1717.00,1067.00 1797.00,1067.00 1797.00,1067.00
             1798.94,1067.00 1802.72,1066.75 1804.26,1067.99
             1806.94,1070.16 1806.00,1082.37 1806.00,1086.00
             1806.00,1086.00 1806.00,1146.00 1806.00,1146.00
             1806.00,1147.99 1806.23,1151.81 1804.98,1153.40
             1802.97,1155.93 1789.58,1155.00 1786.00,1155.00
             1786.00,1155.00 1727.00,1155.00 1727.00,1155.00
             1724.81,1155.00 1721.16,1154.79 1719.31,1156.02
             1715.77,1158.38 1717.00,1171.73 1717.00,1176.00
             1717.00,1176.00 1717.00,1241.00 1717.00,1241.00
             1717.00,1241.00 1630.00,1241.00 1630.00,1241.00
             1630.00,1241.00 1631.00,1209.00 1631.00,1209.00
             1631.00,1209.00 1631.00,1155.00 1631.00,1155.00
             1631.00,1155.00 1545.00,1155.00 1545.00,1155.00
             1545.00,1155.00 1545.00,1232.00 1545.00,1232.00
             1545.00,1233.99 1545.23,1237.81 1543.98,1239.40
             1541.96,1241.95 1527.68,1241.00 1524.00,1241.00
             1524.00,1241.00 1457.00,1241.00 1457.00,1241.00
             1457.00,1241.00 1457.00,1165.00 1457.00,1165.00
             1457.00,1162.81 1457.21,1159.16 1455.98,1157.31
             1453.63,1153.80 1441.17,1155.00 1437.00,1155.00
             1437.00,1155.00 1377.00,1155.00 1377.00,1155.00
             1375.01,1155.00 1371.19,1155.23 1369.60,1153.98
             1367.07,1151.97 1368.00,1138.58 1368.00,1135.00
             1368.00,1135.00 1368.00,1076.00 1368.00,1076.00
             1368.00,1074.01 1367.77,1070.19 1369.02,1068.60
             1371.04,1066.05 1385.32,1067.00 1389.00,1067.00
             1389.00,1067.00 1457.00,1067.00 1457.00,1067.00
             1457.00,1067.00 1457.00,981.00 1457.00,981.00
             1457.00,981.00 1377.00,981.00 1377.00,981.00
             1375.01,981.00 1371.19,981.23 1369.60,979.98
             1367.07,977.97 1368.00,964.58 1368.00,961.00
             1368.00,961.00 1368.00,902.00 1368.00,902.00
             1368.00,900.01 1367.77,896.19 1369.02,894.60
             1371.03,892.07 1384.42,893.00 1388.00,893.00
             1388.00,893.00 1447.00,893.00 1447.00,893.00
             1449.19,893.00 1452.84,893.21 1454.69,891.98
             1458.23,889.62 1457.00,876.27 1457.00,872.00
             1457.00,872.00 1457.00,806.00 1457.00,806.00
             1457.00,806.00 1535.00,806.00 1535.00,806.00
             1537.19,806.00 1540.84,805.79 1542.69,807.02
             1546.20,809.37 1545.00,821.83 1545.00,826.00
             1545.00,826.00 1545.00,883.00 1545.00,883.00
             1545.00,885.19 1544.79,888.84 1546.02,890.69
             1548.35,894.17 1559.93,893.00 1564.00,893.00
             1564.00,893.00 1621.00,893.00 1621.00,893.00
             1623.19,893.00 1626.84,893.21 1628.69,891.98
             1632.20,889.63 1631.00,877.17 1631.00,873.00
             1631.00,873.00 1631.00,815.00 1631.00,815.00
             1631.00,813.01 1630.77,809.19 1632.02,807.60
             1634.04,805.05 1648.32,806.00 1652.00,806.00
             1652.00,806.00 1717.00,806.00 1717.00,806.00 Z" />
</svg>
