<?xml version="1.0" encoding="UTF-8" standalone="no"?>
<!DOCTYPE svg PUBLIC "-//W3C//DTD SVG 20010904//EN"
              "http://www.w3.org/TR/2001/REC-SVG-20010904/DTD/svg10.dtd">

<svg xmlns="http://www.w3.org/2000/svg"
     width="361.263mm" height="361.263mm"
     viewBox="0 0 2048 2048">
  <path id="Selection"
        fill="#7851a9" stroke="black" stroke-width="1"
        d="M 218.00,26.00
           C 215.32,34.81 207.56,33.63 201.00,30.00
             199.66,31.73 198.96,32.89 196.96,34.03
             196.96,34.03 180.00,38.74 180.00,38.74
             166.86,42.80 154.12,47.96 142.00,54.47
             105.26,74.22 77.51,102.21 56.45,138.00
             51.46,146.49 46.28,160.59 42.80,170.00
             42.80,170.00 37.10,187.09 37.10,187.09
             37.10,187.09 34.82,196.00 34.82,196.00
             33.87,201.41 36.31,206.47 28.00,209.00
             37.35,220.14 28.02,231.80 28.00,244.00
             28.00,244.00 28.00,312.00 28.00,312.00
             28.00,312.00 28.00,611.00 28.00,611.00
             28.00,611.00 28.00,1453.00 28.00,1453.00
             28.00,1453.00 28.00,1723.00 28.00,1723.00
             28.00,1723.00 28.00,1800.00 28.00,1800.00
             28.02,1810.51 29.46,1806.96 31.03,1815.00
             32.48,1822.09 32.27,1827.93 31.03,1835.00
             35.68,1840.02 34.10,1843.11 35.46,1849.00
             35.46,1849.00 41.23,1869.00 41.23,1869.00
             48.10,1888.90 53.63,1901.18 65.09,1919.00
             65.09,1919.00 77.21,1935.00 77.21,1935.00
             78.99,1937.27 82.47,1941.28 83.08,1944.00
             83.08,1944.00 83.08,1952.00 83.08,1952.00
             92.37,1948.16 93.96,1953.97 93.00,1962.00
             94.96,1961.60 98.12,1960.59 100.00,1960.99
             102.47,1961.52 105.90,1964.66 107.99,1966.26
             107.99,1966.26 124.00,1977.80 124.00,1977.80
             148.38,1994.04 159.37,1996.92 186.00,2005.91
             186.00,2005.91 198.00,2009.23 198.00,2009.23
             204.72,2010.24 211.48,2007.83 213.00,2017.00
             222.37,2008.57 227.78,2012.87 239.00,2013.00
             239.00,2013.00 297.00,2013.00 297.00,2013.00
             297.00,2013.00 535.00,2013.00 535.00,2013.00
             535.00,2013.00 1473.00,2013.00 1473.00,2013.00
             1473.00,2013.00 1740.00,2013.00 1740.00,2013.00
             1740.00,2013.00 1802.00,2013.00 1802.00,2013.00
             1810.52,2012.99 1822.72,2008.65 1829.00,2016.00
             1834.54,2008.30 1837.26,2009.11 1846.00,2011.00
             1850.96,2005.84 1851.20,2008.08 1857.00,2006.20
             1857.00,2006.20 1884.00,1997.10 1884.00,1997.10
             1902.17,1990.17 1918.23,1978.80 1934.00,1967.72
             1936.85,1965.72 1939.89,1963.95 1942.41,1961.52
             1945.48,1958.56 1951.11,1951.83 1955.00,1950.84
             1956.90,1950.13 1959.09,1950.68 1961.00,1950.84
             1960.26,1949.08 1959.07,1947.07 1959.50,1944.96
             1960.06,1942.24 1963.10,1939.10 1964.87,1937.00
             1964.87,1937.00 1974.85,1924.00 1974.85,1924.00
             1988.32,1905.45 1993.51,1893.29 2001.29,1872.04
             2001.29,1872.04 2003.55,1866.72 2003.55,1866.72
             2003.55,1866.72 2008.61,1848.00 2008.61,1848.00
             2009.31,1844.74 2008.65,1841.17 2010.31,1838.13
             2011.58,1835.83 2013.99,1834.56 2016.00,1833.00
             2014.50,1831.71 2013.14,1830.79 2012.26,1828.91
             2011.07,1826.36 2012.12,1815.90 2012.94,1813.00
             2012.94,1813.00 2015.93,1805.00 2015.93,1805.00
             2015.93,1805.00 2015.93,1799.00 2015.93,1799.00
             2015.93,1799.00 2015.93,1756.00 2015.93,1756.00
             2015.93,1756.00 2015.93,1520.00 2015.93,1520.00
             2015.93,1520.00 2015.93,563.00 2015.93,563.00
             2015.93,563.00 2015.93,295.00 2015.93,295.00
             2015.93,295.00 2015.93,243.00 2015.93,243.00
             2015.93,243.00 2015.93,237.17 2015.93,237.17
             2015.93,237.17 2013.33,230.96 2013.33,230.96
             2012.36,227.92 2010.92,215.82 2012.26,213.22
             2013.17,211.45 2014.43,210.96 2016.00,210.00
             2008.05,204.96 2008.87,202.62 2010.00,194.00
             2008.81,192.83 2008.20,192.58 2007.48,190.89
             2007.48,190.89 2006.41,185.00 2006.41,185.00
             2006.41,185.00 2003.34,176.00 2003.34,176.00
             1999.08,163.39 1993.89,150.79 1987.74,139.00
             1984.48,132.76 1971.27,113.49 1966.68,108.00
             1966.68,108.00 1958.29,99.00 1958.29,99.00
             1958.29,99.00 1949.91,89.17 1949.91,89.17
             1943.87,83.30 1928.24,71.37 1921.00,66.31
             1903.31,53.95 1885.26,46.05 1865.00,39.09
             1865.00,39.09 1858.00,37.32 1858.00,37.32
             1858.00,37.32 1853.09,35.58 1853.09,35.58
             1847.94,34.30 1845.50,35.91 1843.00,29.00
             1836.94,34.08 1828.70,34.90 1826.00,26.00
             1826.00,26.00 1822.00,26.00 1822.00,26.00
             1814.52,26.14 1816.31,27.78 1810.96,29.86
             1807.71,31.13 1804.42,30.99 1801.00,31.00
             1801.00,31.00 1744.00,31.00 1744.00,31.00
             1744.00,31.00 1727.00,30.00 1727.00,30.00
             1727.00,30.00 1594.00,30.00 1594.00,30.00
             1594.00,30.00 1579.00,31.00 1579.00,31.00
             1579.00,31.00 1460.00,31.00 1460.00,31.00
             1460.00,31.00 1445.00,30.00 1445.00,30.00
             1445.00,30.00 1311.00,30.00 1311.00,30.00
             1311.00,30.00 1296.00,31.00 1296.00,31.00
             1296.00,31.00 1176.00,31.00 1176.00,31.00
             1176.00,31.00 1161.00,30.00 1161.00,30.00
             1161.00,30.00 1028.00,30.00 1028.00,30.00
             1028.00,30.00 1013.00,31.00 1013.00,31.00
             1013.00,31.00 892.00,31.00 892.00,31.00
             892.00,31.00 877.00,30.00 877.00,30.00
             877.00,30.00 742.00,30.00 742.00,30.00
             742.00,30.00 727.00,31.00 727.00,31.00
             727.00,31.00 607.00,31.00 607.00,31.00
             607.00,31.00 592.00,30.00 592.00,30.00
             592.00,30.00 460.00,30.00 460.00,30.00
             460.00,30.00 445.00,31.00 445.00,31.00
             445.00,31.00 324.00,31.00 324.00,31.00
             324.00,31.00 307.00,30.00 307.00,30.00
             307.00,30.00 248.00,30.00 248.00,30.00
             248.00,30.00 234.01,30.50 234.01,30.50
             229.81,29.68 228.76,27.58 225.91,26.58
             223.79,25.83 220.31,26.00 218.00,26.00 Z
           M 1581.00,935.00
           C 1581.97,933.34 1582.44,932.09 1584.22,931.02
             1587.26,929.20 1597.67,929.70 1600.43,932.08
             1601.63,933.12 1601.54,933.70 1602.00,934.85
             1609.13,930.37 1609.95,933.15 1617.00,934.85
             1617.00,934.85 1624.00,935.39 1624.00,935.39
             1624.00,935.39 1631.00,937.62 1631.00,937.62
             1631.00,937.62 1644.00,940.37 1644.00,940.37
             1669.17,947.56 1693.06,958.69 1715.00,973.00
             1722.98,978.21 1726.55,980.43 1734.00,986.73
             1739.72,991.57 1744.11,993.16 1740.00,1001.00
             1744.35,1003.48 1748.73,1007.51 1751.00,1012.00
             1760.91,1008.32 1762.98,1013.97 1769.28,1021.17
             1780.10,1033.51 1789.35,1047.13 1798.05,1061.00
             1800.47,1064.86 1808.23,1075.61 1807.08,1079.91
             1806.21,1083.14 1801.66,1085.71 1799.00,1087.41
             1799.00,1087.41 1779.00,1100.33 1779.00,1100.33
             1779.00,1100.33 1747.00,1120.54 1747.00,1120.54
             1747.00,1120.54 1694.00,1154.42 1694.00,1154.42
             1694.00,1154.42 1670.72,1169.15 1670.72,1169.15
             1668.04,1171.07 1663.56,1174.47 1660.10,1173.35
             1657.43,1172.48 1655.79,1169.24 1654.39,1167.00
             1654.39,1167.00 1644.66,1152.00 1644.66,1152.00
             1636.52,1140.03 1619.88,1122.13 1608.00,1114.09
             1596.55,1106.34 1580.63,1099.79 1567.00,1097.02
             1567.00,1097.02 1560.00,1097.02 1560.00,1097.02
             1553.15,1096.21 1545.65,1097.20 1545.00,1089.00
             1545.00,1089.00 1538.00,1089.00 1538.00,1089.00
             1537.08,1100.06 1526.30,1094.84 1516.00,1098.29
             1516.00,1098.29 1502.00,1102.65 1502.00,1102.65
             1489.44,1107.75 1474.32,1118.56 1466.96,1130.00
             1463.29,1135.71 1460.77,1141.62 1458.58,1148.00
             1456.76,1153.28 1457.22,1156.21 1452.00,1159.00
             1453.07,1160.77 1453.92,1161.88 1454.43,1164.00
             1454.43,1164.00 1454.43,1181.00 1454.43,1181.00
             1454.43,1181.00 1453.81,1186.83 1453.81,1186.83
             1453.81,1186.83 1456.49,1194.01 1456.49,1194.01
             1456.49,1194.01 1460.33,1207.00 1460.33,1207.00
             1461.78,1210.62 1471.74,1226.72 1474.35,1229.40
             1484.39,1239.72 1496.74,1247.46 1509.00,1254.82
             1536.24,1271.16 1565.95,1282.71 1595.00,1295.39
             1650.34,1319.55 1712.00,1346.50 1760.00,1383.24
             1760.00,1383.24 1771.17,1393.33 1771.17,1393.33
             1771.17,1393.33 1779.00,1399.32 1779.00,1399.32
             1779.00,1399.32 1791.00,1411.00 1791.00,1411.00
             1816.04,1436.04 1836.81,1466.11 1847.92,1500.00
             1847.92,1500.00 1851.47,1513.00 1851.47,1513.00
             1851.47,1513.00 1857.31,1536.00 1857.31,1536.00
             1858.70,1543.47 1860.90,1546.06 1856.00,1553.00
             1857.36,1553.45 1858.14,1553.42 1859.26,1554.59
             1861.57,1557.01 1862.56,1566.71 1861.27,1569.79
             1860.17,1572.40 1858.13,1572.95 1857.16,1576.10
             1856.89,1577.71 1857.00,1582.13 1857.16,1584.00
             1858.33,1584.47 1858.91,1584.38 1860.00,1585.57
             1863.11,1588.98 1863.70,1600.63 1861.97,1604.87
             1860.45,1608.61 1857.67,1608.61 1857.16,1613.01
             1856.56,1618.22 1859.91,1618.98 1861.27,1622.21
             1862.71,1625.62 1862.18,1636.74 1859.42,1639.40
             1857.85,1640.91 1855.99,1640.84 1854.00,1641.00
             1855.45,1641.99 1857.01,1642.83 1857.98,1644.38
             1860.64,1648.64 1858.91,1655.32 1854.00,1657.00
             1857.21,1663.93 1854.65,1669.89 1852.71,1677.00
             1848.68,1691.78 1843.26,1706.55 1835.78,1720.00
             1826.06,1737.48 1823.06,1744.00 1809.56,1760.00
             1809.56,1760.00 1794.99,1775.90 1794.99,1775.90
             1794.99,1775.90 1787.09,1782.19 1787.09,1782.19
             1787.09,1782.19 1775.00,1793.70 1775.00,1793.70
             1775.00,1793.70 1752.00,1810.46 1752.00,1810.46
             1739.35,1818.61 1720.91,1828.06 1707.00,1833.96
             1707.00,1833.96 1696.00,1838.01 1696.00,1838.01
             1696.00,1838.01 1673.00,1846.21 1673.00,1846.21
             1673.00,1846.21 1657.00,1849.49 1657.00,1849.49
             1657.00,1849.49 1651.00,1851.55 1651.00,1851.55
             1651.00,1851.55 1645.28,1852.08 1645.28,1852.08
             1642.94,1852.63 1641.68,1853.99 1636.00,1854.70
             1636.00,1854.70 1630.00,1855.22 1630.00,1855.22
             1623.14,1856.53 1619.49,1859.69 1615.00,1852.00
             1613.87,1854.02 1612.75,1856.57 1610.73,1857.83
             1607.81,1859.65 1595.33,1860.84 1592.22,1858.98
             1590.44,1857.91 1589.97,1856.66 1589.00,1855.00
             1585.64,1862.28 1580.52,1861.91 1573.00,1862.00
             1573.00,1862.00 1534.00,1862.00 1534.00,1862.00
             1528.15,1861.99 1519.19,1862.66 1516.00,1857.00
             1514.13,1858.24 1513.27,1858.99 1511.00,1859.58
             1507.52,1860.49 1493.33,1859.69 1490.22,1858.26
             1488.36,1857.41 1488.06,1856.55 1487.00,1854.86
             1479.50,1858.95 1477.12,1856.31 1470.00,1854.86
             1470.00,1854.86 1463.00,1854.86 1463.00,1854.86
             1463.00,1854.86 1455.00,1852.59 1455.00,1852.59
             1450.36,1851.46 1447.82,1852.49 1445.00,1848.00
             1442.93,1848.50 1441.18,1848.99 1439.00,1848.82
             1439.00,1848.82 1406.00,1839.68 1406.00,1839.68
             1376.61,1829.84 1353.22,1818.21 1327.00,1801.68
             1327.00,1801.68 1311.00,1791.19 1311.00,1791.19
             1311.00,1791.19 1287.00,1771.72 1287.00,1771.72
             1283.10,1768.32 1279.83,1766.43 1280.00,1761.00
             1270.28,1758.56 1262.43,1747.55 1256.34,1740.01
             1256.34,1740.01 1246.50,1729.00 1246.50,1729.00
             1237.57,1717.55 1229.54,1705.32 1221.88,1693.00
             1221.88,1693.00 1212.09,1676.00 1212.09,1676.00
             1210.77,1673.42 1209.35,1670.14 1211.03,1667.38
             1212.35,1665.19 1218.59,1661.83 1221.00,1660.40
             1221.00,1660.40 1245.00,1646.70 1245.00,1646.70
             1245.00,1646.70 1329.00,1598.09 1329.00,1598.09
             1329.00,1598.09 1355.00,1583.00 1355.00,1583.00
             1357.80,1581.48 1361.69,1578.61 1364.91,1580.08
             1367.40,1581.22 1369.39,1584.74 1370.81,1587.00
             1370.81,1587.00 1380.00,1601.00 1380.00,1601.00
             1389.06,1613.76 1398.95,1625.92 1410.00,1637.00
             1410.00,1637.00 1420.26,1647.88 1420.26,1647.88
             1420.26,1647.88 1425.83,1650.98 1425.83,1650.98
             1425.83,1650.98 1445.00,1665.21 1445.00,1665.21
             1445.00,1665.21 1473.00,1679.15 1473.00,1679.15
             1473.00,1679.15 1494.71,1686.31 1494.71,1686.31
             1496.21,1687.23 1496.18,1687.69 1497.00,1689.00
             1505.81,1686.50 1506.67,1689.46 1511.17,1690.08
             1518.35,1691.08 1528.13,1687.55 1529.00,1698.00
             1529.00,1698.00 1554.00,1698.00 1554.00,1698.00
             1555.08,1691.74 1559.28,1691.31 1565.00,1691.04
             1565.00,1691.04 1581.00,1689.78 1581.00,1689.78
             1581.00,1689.78 1587.00,1688.22 1587.00,1688.22
             1589.77,1687.78 1590.90,1688.17 1594.00,1687.25
             1624.13,1678.38 1651.18,1663.68 1665.00,1634.00
             1666.57,1630.63 1670.66,1621.33 1671.13,1618.00
             1671.13,1618.00 1671.13,1610.00 1671.13,1610.00
             1671.13,1610.00 1671.97,1602.00 1671.97,1602.00
             1671.97,1595.03 1668.28,1589.13 1676.00,1585.00
             1668.79,1580.97 1670.72,1581.90 1668.21,1575.00
             1668.21,1575.00 1664.77,1567.00 1664.77,1567.00
             1662.29,1561.30 1658.86,1555.94 1655.10,1551.00
             1641.97,1533.73 1624.67,1523.44 1606.00,1513.09
             1583.62,1500.69 1560.42,1491.09 1537.00,1480.97
             1492.40,1461.69 1433.98,1436.86 1394.00,1410.69
             1377.65,1400.00 1362.52,1388.23 1348.00,1375.17
             1342.23,1369.97 1333.08,1361.92 1328.39,1356.00
             1328.39,1356.00 1324.37,1350.28 1324.37,1350.28
             1324.37,1350.28 1316.08,1341.00 1316.08,1341.00
             1311.03,1334.87 1304.12,1324.87 1300.06,1318.00
             1293.91,1307.57 1284.88,1287.52 1281.04,1276.00
             1281.04,1276.00 1275.78,1259.00 1275.78,1259.00
             1275.78,1259.00 1271.96,1245.00 1271.96,1245.00
             1271.96,1245.00 1271.96,1238.42 1271.96,1238.42
             1270.14,1232.68 1265.56,1226.20 1273.00,1222.00
             1265.44,1217.08 1267.63,1212.73 1266.80,1205.00
             1266.24,1201.01 1265.39,1196.93 1266.80,1193.01
             1268.41,1189.06 1270.41,1189.04 1272.00,1184.00
             1270.32,1183.72 1268.92,1183.73 1267.60,1182.40
             1265.76,1180.55 1263.35,1170.49 1272.00,1169.00
             1271.39,1161.56 1268.97,1163.42 1266.89,1157.99
             1265.64,1154.73 1266.34,1145.19 1268.17,1142.29
             1269.11,1140.81 1269.68,1140.79 1271.00,1140.00
             1268.65,1134.92 1267.80,1127.58 1273.00,1124.00
             1271.23,1116.63 1274.66,1108.53 1276.77,1101.42
             1276.77,1101.42 1277.96,1095.99 1277.96,1095.99
             1283.37,1079.17 1293.45,1057.62 1303.26,1043.00
             1312.88,1028.67 1319.12,1020.66 1330.91,1008.00
             1330.91,1008.00 1340.00,998.09 1340.00,998.09
             1340.00,998.09 1349.83,990.52 1349.83,990.52
             1349.83,990.52 1359.00,982.51 1359.00,982.51
             1377.03,968.93 1405.67,953.88 1427.00,946.17
             1427.00,946.17 1440.00,942.53 1440.00,942.53
             1440.00,942.53 1466.00,935.52 1466.00,935.52
             1466.00,935.52 1473.00,934.70 1473.00,934.70
             1473.00,934.70 1480.00,932.63 1480.00,932.63
             1480.00,932.63 1488.00,931.97 1488.00,931.97
             1488.00,931.97 1496.00,930.10 1496.00,930.10
             1496.00,930.10 1505.00,930.10 1505.00,930.10
             1511.11,929.68 1508.74,928.15 1522.00,928.00
             1522.00,928.00 1537.00,927.04 1537.00,927.04
             1537.00,927.04 1554.00,927.04 1554.00,927.04
             1554.00,927.04 1562.00,927.96 1562.00,927.96
             1571.04,928.36 1575.93,926.14 1581.00,935.00 Z
           M 1105.00,1616.00
           C 1106.35,1617.71 1107.46,1618.89 1108.26,1621.00
             1109.59,1624.50 1109.32,1633.70 1106.44,1636.40
             1105.02,1637.74 1103.76,1637.71 1102.00,1638.00
             1110.65,1646.03 1105.32,1647.95 1104.06,1657.00
             1104.06,1657.00 1103.47,1663.00 1103.47,1663.00
             1103.47,1663.00 1101.38,1670.00 1101.38,1670.00
             1100.03,1676.74 1101.60,1674.61 1098.42,1684.00
             1098.42,1684.00 1093.47,1697.17 1093.47,1697.17
             1083.99,1726.00 1070.03,1754.04 1049.82,1777.00
             1049.82,1777.00 1033.83,1793.21 1033.83,1793.21
             1033.83,1793.21 1025.00,1800.17 1025.00,1800.17
             1006.54,1815.97 986.63,1828.95 964.00,1838.10
             964.00,1838.10 942.00,1846.33 942.00,1846.33
             942.00,1846.33 929.00,1849.48 929.00,1849.48
             922.18,1851.43 915.13,1853.92 908.00,1854.86
             908.00,1854.86 903.00,1854.86 903.00,1854.86
             897.02,1856.35 891.95,1859.95 889.00,1852.00
             888.13,1853.91 887.40,1855.91 885.70,1857.26
             883.27,1859.20 875.03,1860.47 872.09,1859.40
             868.91,1858.25 869.09,1856.54 864.00,1855.00
             863.41,1862.38 857.25,1861.92 851.00,1862.16
             851.00,1862.16 832.00,1862.16 832.00,1862.16
             832.00,1862.16 815.00,1862.16 815.00,1862.16
             811.70,1861.99 803.15,1861.98 800.99,1859.27
             800.02,1858.05 800.12,1856.45 800.00,1855.00
             800.00,1855.00 792.91,1859.27 792.91,1859.27
             789.76,1860.50 778.95,1859.78 776.60,1857.40
             775.10,1855.89 775.16,1853.95 775.00,1852.00
             773.73,1853.42 772.53,1855.03 770.82,1855.98
             768.05,1857.52 762.00,1857.26 760.02,1854.49
             759.06,1853.15 759.13,1851.55 759.00,1850.00
             751.63,1857.91 751.17,1852.91 742.83,1851.85
             737.81,1851.20 738.05,1850.49 734.00,1849.46
             720.95,1846.14 708.43,1842.18 696.00,1836.84
             674.16,1827.47 649.56,1813.17 631.17,1798.15
             624.30,1792.54 624.23,1790.55 620.79,1787.58
             620.79,1787.58 608.99,1777.92 608.99,1777.92
             603.59,1772.90 602.82,1771.13 598.48,1766.17
             598.48,1766.17 590.46,1758.00 590.46,1758.00
             590.46,1758.00 573.63,1735.00 573.63,1735.00
             573.63,1735.00 554.08,1702.00 554.08,1702.00
             552.54,1699.11 548.14,1691.27 548.95,1688.18
             549.77,1685.05 555.34,1682.57 558.00,1680.94
             558.00,1680.94 583.00,1665.99 583.00,1665.99
             583.00,1665.99 669.00,1614.69 669.00,1614.69
             669.00,1614.69 691.96,1600.85 691.96,1600.85
             694.86,1599.29 698.67,1596.25 701.96,1596.41
             707.21,1596.67 711.60,1607.78 713.92,1612.00
             720.50,1623.99 728.76,1634.91 736.71,1646.00
             742.70,1654.36 747.09,1655.74 744.00,1666.00
             744.00,1666.00 747.00,1669.00 747.00,1669.00
             747.00,1669.00 749.00,1669.00 749.00,1669.00
             751.29,1664.99 753.06,1664.83 757.00,1667.35
             757.00,1667.35 766.00,1674.00 766.00,1674.00
             775.27,1680.50 781.53,1682.81 792.00,1686.23
             798.27,1688.27 802.78,1687.65 804.00,1695.00
             804.00,1695.00 813.04,1690.21 813.04,1690.21
             813.04,1690.21 833.00,1690.21 833.00,1690.21
             833.00,1690.21 839.79,1690.73 839.79,1690.73
             839.79,1690.73 846.00,1695.00 846.00,1695.00
             846.69,1686.63 852.34,1687.38 859.00,1689.00
             861.61,1684.85 868.44,1683.89 873.00,1681.69
             880.43,1678.10 890.92,1671.50 896.51,1665.55
             900.37,1661.44 908.88,1644.79 911.13,1639.00
             913.19,1633.69 913.36,1627.17 919.00,1625.00
             915.66,1619.87 915.04,1615.33 921.00,1612.00
             917.06,1604.52 919.90,1596.97 920.00,1589.00
             920.00,1589.00 920.00,1534.00 920.00,1534.00
             920.00,1534.00 920.00,1336.00 920.00,1336.00
             920.00,1336.00 920.00,1137.00 920.00,1137.00
             920.00,1137.00 920.00,949.00 920.00,949.00
             920.00,946.24 919.65,941.82 921.74,939.74
             923.69,937.78 927.43,938.01 930.00,938.00
             930.00,938.00 962.00,938.00 962.00,938.00
             962.00,938.00 1102.00,938.00 1102.00,938.00
             1104.53,938.01 1108.36,937.66 1110.26,939.60
             1112.04,941.42 1111.96,944.63 1112.00,947.00
             1112.00,947.00 1112.00,964.00 1112.00,964.00
             1112.00,964.00 1112.00,1048.00 1112.00,1048.00
             1112.00,1048.00 1112.00,1411.00 1112.00,1411.00
             1112.00,1411.00 1112.00,1588.00 1112.00,1588.00
             1112.00,1588.00 1111.00,1603.00 1111.00,1603.00
             1110.97,1609.27 1112.27,1614.34 1105.00,1616.00 Z" />
</svg>
