<?xml version="1.0" encoding="UTF-8" standalone="no"?>
<!DOCTYPE svg PUBLIC "-//W3C//DTD SVG 20010904//EN"
              "http://www.w3.org/TR/2001/REC-SVG-20010904/DTD/svg10.dtd">

<svg xmlns="http://www.w3.org/2000/svg"
     width="361.263mm" height="361.263mm"
     viewBox="0 0 2048 2048">
  <path id="Selection"
        fill="#7851a9" stroke="black" stroke-width="1"
        d="M 965.00,24.00
           C 964.39,25.84 964.41,26.62 962.69,27.91
             959.66,30.18 943.40,30.99 939.00,31.00
             939.00,31.00 919.00,32.00 919.00,32.00
             919.00,32.00 903.00,31.30 903.00,31.30
             903.00,31.30 897.00,32.63 897.00,32.63
             893.90,33.24 887.18,33.96 884.00,34.00
             861.68,34.26 870.79,35.57 857.00,36.83
             851.41,37.34 849.37,35.96 847.00,36.15
             844.07,36.38 842.78,38.11 839.00,38.78
             839.00,38.78 825.00,39.41 825.00,39.41
             825.00,39.41 817.00,41.52 817.00,41.52
             817.00,41.52 808.00,42.21 808.00,42.21
             808.00,42.21 798.00,44.53 798.00,44.53
             798.00,44.53 790.00,44.53 790.00,44.53
             790.00,44.53 783.00,47.02 783.00,47.02
             783.00,47.02 774.00,47.02 774.00,47.02
             774.00,47.02 766.00,49.52 766.00,49.52
             766.00,49.52 760.00,50.25 760.00,50.25
             760.00,50.25 754.00,51.74 754.00,51.74
             754.00,51.74 747.00,52.47 747.00,52.47
             747.00,52.47 741.00,54.45 741.00,54.45
             741.00,54.45 733.00,55.60 733.00,55.60
             697.66,64.09 664.34,73.34 632.00,90.47
             618.89,97.41 601.71,107.93 591.00,118.04
             562.24,145.21 547.67,176.57 540.37,215.00
             540.37,215.00 539.70,222.00 539.70,222.00
             539.70,222.00 537.34,231.00 537.34,231.00
             537.34,231.00 536.83,242.00 536.83,242.00
             536.83,242.00 534.89,254.00 534.89,254.00
             534.89,254.00 534.89,265.00 534.89,265.00
             534.89,265.00 534.89,323.00 534.89,323.00
             534.89,323.00 534.89,469.00 534.89,469.00
             534.89,469.00 998.00,469.00 998.00,469.00
             1006.64,469.01 1009.86,469.31 1010.00,479.00
             1010.00,479.00 1010.00,525.00 1010.00,525.00
             1009.99,527.52 1010.42,532.52 1007.70,533.83
             1003.77,535.73 1004.77,530.15 996.00,530.00
             996.00,530.00 972.00,530.00 972.00,530.00
             972.00,530.00 850.00,530.00 850.00,530.00
             850.00,530.00 352.00,530.00 352.00,530.00
             351.62,531.76 351.51,533.11 350.26,534.57
             347.60,537.68 338.00,537.98 334.00,538.00
             334.00,538.00 321.00,538.58 321.00,538.58
             321.00,538.58 315.00,538.58 315.00,538.58
             315.00,538.58 305.00,540.57 305.00,540.57
             305.00,540.57 297.00,541.37 297.00,541.37
             275.92,545.38 255.02,551.52 235.00,559.26
             209.92,568.95 183.94,585.84 163.00,602.55
             163.00,602.55 147.09,615.17 147.09,615.17
             147.09,615.17 139.96,623.00 139.96,623.00
             113.75,650.41 91.61,684.80 77.28,720.00
             70.42,736.86 61.20,766.25 56.88,784.00
             56.88,784.00 53.45,802.00 53.45,802.00
             53.45,802.00 51.47,808.00 51.47,808.00
             51.47,808.00 48.45,825.00 48.45,825.00
             48.45,825.00 46.47,831.00 46.47,831.00
             46.47,831.00 45.59,838.00 45.59,838.00
             45.59,838.00 43.57,844.00 43.57,844.00
             43.57,844.00 43.57,851.00 43.57,851.00
             43.57,851.00 41.37,859.00 41.37,859.00
             41.37,859.00 40.68,867.00 40.68,867.00
             40.68,867.00 36.37,888.00 36.37,888.00
             36.37,888.00 35.71,895.00 35.71,895.00
             34.25,905.97 33.18,899.52 33.00,915.00
             32.92,921.80 32.08,921.49 31.07,927.00
             31.07,927.00 31.07,936.00 31.07,936.00
             31.07,936.00 27.98,958.00 27.98,958.00
             27.98,958.00 27.98,975.00 27.98,975.00
             27.98,975.00 27.00,986.00 27.00,986.00
             26.94,991.82 27.02,996.17 25.82,1002.00
             25.82,1002.00 23.14,1011.00 23.14,1011.00
             22.37,1018.12 26.84,1019.92 27.00,1033.00
             27.00,1033.00 27.83,1066.00 27.83,1066.00
             27.83,1066.00 27.83,1077.00 27.83,1077.00
             27.83,1077.00 29.59,1083.00 29.59,1083.00
             29.59,1083.00 30.79,1094.00 30.79,1094.00
             30.79,1094.00 30.79,1104.00 30.79,1104.00
             31.52,1111.26 32.74,1105.90 33.00,1122.00
             33.12,1128.80 34.42,1128.50 35.52,1134.00
             35.52,1134.00 36.21,1142.00 36.21,1142.00
             36.21,1142.00 37.83,1149.00 37.83,1149.00
             37.83,1149.00 38.60,1158.00 38.60,1158.00
             38.60,1158.00 40.66,1165.00 40.66,1165.00
             40.66,1165.00 41.37,1174.00 41.37,1174.00
             41.37,1174.00 43.38,1182.00 43.38,1182.00
             43.38,1182.00 46.51,1200.00 46.51,1200.00
             46.51,1200.00 48.48,1207.00 48.48,1207.00
             48.48,1207.00 49.37,1213.00 49.37,1213.00
             49.37,1213.00 58.41,1252.00 58.41,1252.00
             58.41,1252.00 59.63,1259.00 59.63,1259.00
             70.65,1298.95 84.12,1339.08 105.23,1375.00
             105.23,1375.00 115.08,1390.00 115.08,1390.00
             115.08,1390.00 126.26,1405.00 126.26,1405.00
             126.26,1405.00 138.47,1420.70 138.47,1420.70
             158.88,1443.88 185.93,1462.84 214.00,1475.51
             214.00,1475.51 232.00,1482.50 232.00,1482.50
             247.04,1488.29 263.06,1491.13 279.00,1492.84
             286.31,1493.62 293.14,1492.47 295.00,1501.00
             300.71,1497.60 298.92,1495.15 307.00,1495.00
             307.00,1495.00 351.00,1495.00 351.00,1495.00
             351.00,1495.00 468.00,1495.00 468.00,1495.00
             468.00,1495.00 468.00,1322.00 468.00,1322.00
             468.00,1322.00 468.00,1286.00 468.00,1286.00
             468.05,1282.18 468.65,1272.28 471.51,1269.74
             472.94,1268.47 474.26,1268.38 476.00,1268.00
             474.41,1263.25 472.83,1264.21 471.02,1260.87
             469.77,1258.57 469.95,1254.62 470.01,1252.00
             470.20,1244.18 472.07,1243.17 473.01,1238.00
             473.01,1238.00 473.01,1230.00 473.01,1230.00
             473.01,1230.00 475.26,1223.00 475.26,1223.00
             477.55,1210.78 481.04,1198.74 485.31,1187.00
             485.31,1187.00 492.33,1168.00 492.33,1168.00
             492.33,1168.00 498.92,1155.00 498.92,1155.00
             518.06,1117.25 543.78,1082.90 576.00,1055.30
             586.48,1046.32 603.22,1034.88 615.00,1027.31
             632.14,1016.29 661.50,1002.62 681.00,996.61
             681.00,996.61 704.00,990.56 704.00,990.56
             704.00,990.56 711.00,988.48 711.00,988.48
             711.00,988.48 726.00,985.95 726.00,985.95
             726.00,985.95 733.00,985.95 733.00,985.95
             733.00,985.95 740.00,984.21 740.00,984.21
             745.18,983.46 750.76,983.01 756.00,983.11
             756.00,983.11 866.00,983.11 866.00,983.11
             866.00,983.11 1246.00,983.11 1246.00,983.11
             1246.00,983.11 1257.00,983.11 1257.00,983.11
             1257.00,983.11 1266.00,981.59 1266.00,981.59
             1266.00,981.59 1279.00,980.40 1279.00,980.40
             1279.00,980.40 1286.00,978.34 1286.00,978.34
             1286.00,978.34 1292.00,977.63 1292.00,977.63
             1304.27,975.22 1316.39,970.84 1328.00,966.30
             1370.21,949.78 1402.51,924.45 1429.48,888.00
             1436.38,878.67 1443.96,868.28 1449.37,858.00
             1457.84,841.92 1464.12,824.51 1468.75,807.00
             1468.75,807.00 1473.30,792.00 1473.30,792.00
             1473.30,792.00 1473.30,784.00 1473.30,784.00
             1474.28,777.67 1475.91,775.63 1476.00,769.00
             1476.00,769.00 1476.00,753.00 1476.00,753.00
             1476.00,753.00 1477.00,738.00 1477.00,738.00
             1477.00,738.00 1477.00,454.00 1477.00,454.00
             1477.00,454.00 1477.00,296.00 1477.00,296.00
             1477.00,296.00 1476.00,283.00 1476.00,283.00
             1476.00,283.00 1476.00,269.00 1476.00,269.00
             1475.86,258.48 1471.74,257.68 1474.00,245.00
             1470.44,241.14 1468.72,229.55 1466.76,224.00
             1462.96,213.24 1453.67,191.61 1448.05,182.00
             1437.88,164.60 1417.34,138.04 1402.58,124.51
             1402.58,124.51 1394.00,117.74 1394.00,117.74
             1374.19,101.68 1358.08,89.72 1335.00,78.42
             1312.88,67.60 1289.79,59.16 1266.00,52.92
             1266.00,52.92 1249.00,49.47 1249.00,49.47
             1249.00,49.47 1242.00,47.38 1242.00,47.38
             1242.00,47.38 1231.00,46.68 1231.00,46.68
             1231.00,46.68 1224.00,45.18 1224.00,45.18
             1224.00,45.18 1212.00,43.83 1212.00,43.83
             1212.00,43.83 1204.00,41.97 1204.00,41.97
             1204.00,41.97 1197.00,41.97 1197.00,41.97
             1197.00,41.97 1179.00,39.00 1179.00,39.00
             1179.00,39.00 1172.00,39.00 1172.00,39.00
             1172.00,39.00 1162.00,36.68 1162.00,36.68
             1153.33,36.37 1142.70,38.98 1136.00,32.00
             1129.50,34.74 1119.98,34.59 1113.00,33.57
             1110.67,33.23 1107.15,32.78 1105.31,31.26
             1103.66,29.90 1103.58,28.86 1103.00,27.00
             1093.50,35.25 1087.21,31.34 1076.00,31.01
             1069.76,30.83 1063.28,31.46 1062.00,24.00
             1044.07,24.00 1055.64,28.97 1039.00,29.00
             1039.00,29.00 997.00,29.00 997.00,29.00
             993.00,29.00 980.00,29.64 977.14,27.98
             975.20,26.85 974.94,25.82 974.00,24.00
             974.00,24.00 965.00,24.00 965.00,24.00 Z
           M 744.00,352.00
           C 740.74,357.17 736.73,355.90 733.00,352.00
             724.73,356.36 716.25,352.41 708.00,349.83
             683.35,342.10 664.25,322.26 653.79,299.00
             650.91,292.57 644.93,272.59 647.60,266.11
             648.57,263.74 649.96,263.19 652.00,262.00
             646.29,258.41 646.85,256.42 647.01,250.00
             647.11,246.37 651.57,229.70 653.04,226.00
             653.04,226.00 658.22,216.00 658.22,216.00
             662.27,208.31 668.23,201.41 674.51,195.41
             674.51,195.41 679.55,191.55 679.55,191.55
             681.52,189.75 682.34,187.79 686.17,184.94
             695.78,177.78 702.05,175.90 713.00,172.64
             719.86,170.60 717.70,169.88 726.00,170.01
             736.80,170.19 734.79,168.15 739.01,168.24
             739.01,168.24 746.00,169.95 746.00,169.95
             746.00,169.95 754.00,169.95 754.00,169.95
             758.69,170.15 759.68,170.83 764.00,172.10
             778.35,176.30 787.68,181.06 798.72,191.39
             803.43,195.80 813.33,205.83 816.53,211.00
             823.77,222.69 825.72,229.87 828.37,243.00
             830.58,253.96 831.02,252.03 831.00,264.00
             830.98,274.68 829.77,272.64 828.25,281.00
             826.11,292.80 822.87,302.65 816.54,313.00
             813.93,317.26 812.31,318.57 809.42,322.17
             798.43,335.85 786.53,343.94 770.00,349.62
             760.86,352.76 753.44,355.99 744.00,352.00 Z
           M 1566.00,530.00
           C 1566.00,530.00 1566.00,696.00 1566.00,696.00
             1566.00,696.00 1566.00,740.00 1566.00,740.00
             1565.93,746.00 1565.78,748.96 1561.00,753.00
             1564.47,759.89 1565.04,768.38 1563.52,776.00
             1563.52,776.00 1561.26,784.00 1561.26,784.00
             1561.26,784.00 1560.68,794.00 1560.68,794.00
             1558.58,806.98 1553.06,827.60 1548.53,840.00
             1543.72,853.18 1534.94,875.01 1528.34,887.00
             1518.88,904.15 1501.88,928.55 1488.83,943.00
             1488.83,943.00 1473.78,957.78 1473.78,957.78
             1473.78,957.78 1454.00,977.70 1454.00,977.70
             1434.65,994.29 1408.95,1009.77 1386.00,1020.94
             1368.14,1029.63 1350.05,1035.20 1331.00,1040.42
             1331.00,1040.42 1324.00,1042.52 1324.00,1042.52
             1324.00,1042.52 1311.00,1045.01 1311.00,1045.01
             1311.00,1045.01 1304.00,1045.01 1304.00,1045.01
             1297.92,1046.05 1297.72,1047.95 1287.00,1048.00
             1279.49,1048.03 1270.02,1050.35 1267.00,1042.00
             1267.00,1042.00 789.00,1042.00 789.00,1042.00
             787.63,1050.23 779.00,1049.91 772.00,1050.00
             761.85,1050.12 760.27,1051.16 751.00,1052.68
             751.00,1052.68 744.00,1053.37 744.00,1053.37
             731.34,1055.82 718.92,1060.32 707.00,1065.10
             648.57,1088.54 601.12,1135.38 576.04,1193.00
             568.90,1209.40 563.25,1226.33 560.57,1244.00
             559.04,1254.11 557.87,1248.16 558.00,1261.00
             558.04,1265.86 557.96,1279.15 555.26,1282.85
             553.67,1285.03 552.38,1285.28 550.00,1286.00
             550.00,1286.00 550.00,1740.00 550.00,1740.00
             552.26,1740.79 553.72,1741.16 555.26,1743.22
             557.79,1746.60 557.99,1758.55 558.00,1763.00
             558.02,1773.40 559.52,1770.61 560.70,1778.00
             565.70,1809.39 580.33,1837.94 599.65,1863.00
             638.68,1913.63 708.87,1950.71 769.00,1970.41
             769.00,1970.41 841.00,1990.45 841.00,1990.45
             841.00,1990.45 854.00,1993.63 854.00,1993.63
             854.00,1993.63 861.00,1994.55 861.00,1994.55
             861.00,1994.55 868.00,1996.97 868.00,1996.97
             868.00,1996.97 874.00,1996.97 874.00,1996.97
             874.00,1996.97 886.00,1999.47 886.00,1999.47
             886.00,1999.47 894.00,2001.63 894.00,2001.63
             894.00,2001.63 901.00,2002.55 901.00,2002.55
             901.00,2002.55 907.00,2004.52 907.00,2004.52
             907.00,2004.52 913.00,2004.52 913.00,2004.52
             918.75,2004.92 920.69,2006.67 924.00,2007.08
             931.14,2007.98 941.19,2004.99 944.00,2014.00
             946.28,2012.03 947.86,2010.29 951.00,2009.85
             953.12,2009.56 967.71,2010.15 970.00,2010.63
             970.00,2010.63 978.00,2013.09 978.00,2013.09
             978.00,2013.09 990.00,2012.00 990.00,2012.00
             990.00,2012.00 1013.00,2013.00 1013.00,2013.00
             1013.00,2013.00 1050.00,2013.00 1050.00,2013.00
             1060.06,2012.98 1073.75,2009.71 1083.00,2014.00
             1092.63,2007.56 1099.69,2011.09 1110.00,2009.66
             1110.00,2009.66 1120.00,2007.05 1120.00,2007.05
             1120.00,2007.05 1130.00,2007.05 1130.00,2007.05
             1130.00,2007.05 1137.00,2005.28 1137.00,2005.28
             1137.00,2005.28 1154.00,2002.32 1154.00,2002.32
             1154.00,2002.32 1162.00,2001.74 1162.00,2001.74
             1162.00,2001.74 1170.00,1999.48 1170.00,1999.48
             1170.00,1999.48 1182.00,1997.21 1182.00,1997.21
             1182.00,1997.21 1189.00,1996.53 1189.00,1996.53
             1189.00,1996.53 1195.00,1994.55 1195.00,1994.55
             1195.00,1994.55 1211.00,1991.39 1211.00,1991.39
             1211.00,1991.39 1217.00,1989.41 1217.00,1989.41
             1217.00,1989.41 1242.00,1983.52 1242.00,1983.52
             1242.00,1983.52 1309.00,1962.64 1309.00,1962.64
             1309.00,1962.64 1323.00,1956.82 1323.00,1956.82
             1346.24,1947.42 1364.61,1938.74 1386.00,1925.42
             1430.96,1897.44 1470.01,1858.99 1487.77,1808.00
             1492.69,1793.88 1495.44,1779.76 1497.29,1765.00
             1497.29,1765.00 1499.94,1752.00 1499.94,1752.00
             1499.94,1752.00 1499.00,1742.00 1499.00,1742.00
             1499.00,1742.00 1499.00,1698.00 1499.00,1698.00
             1499.00,1698.00 1499.00,1562.00 1499.00,1562.00
             1499.00,1562.00 1036.00,1562.00 1036.00,1562.00
             1026.54,1561.98 1024.13,1561.19 1024.00,1551.00
             1024.00,1551.00 1024.00,1509.00 1024.00,1509.00
             1024.01,1505.24 1023.70,1500.35 1026.51,1497.43
             1029.04,1494.80 1032.65,1495.02 1036.00,1495.09
             1036.00,1495.09 1064.00,1495.09 1064.00,1495.09
             1064.00,1495.09 1195.00,1495.09 1195.00,1495.09
             1195.00,1495.09 1743.00,1495.09 1743.00,1495.09
             1743.00,1495.09 1754.00,1495.09 1754.00,1495.09
             1754.00,1495.09 1765.00,1493.17 1765.00,1493.17
             1765.00,1493.17 1779.00,1492.24 1779.00,1492.24
             1779.00,1492.24 1786.00,1490.47 1786.00,1490.47
             1813.56,1485.18 1836.11,1475.03 1859.00,1458.71
             1859.00,1458.71 1871.00,1449.55 1871.00,1449.55
             1871.00,1449.55 1878.19,1445.42 1878.19,1445.42
             1878.19,1445.42 1885.27,1435.30 1885.27,1435.30
             1885.27,1435.30 1893.72,1425.99 1893.72,1425.99
             1904.55,1412.64 1912.95,1397.85 1921.43,1383.00
             1940.72,1349.22 1954.29,1313.69 1966.84,1277.00
             1966.84,1277.00 1984.45,1224.00 1984.45,1224.00
             1984.45,1224.00 1992.40,1193.00 1992.40,1193.00
             1992.40,1193.00 1993.41,1187.00 1993.41,1187.00
             1993.41,1187.00 1995.51,1181.00 1995.51,1181.00
             1995.51,1181.00 1996.41,1175.00 1996.41,1175.00
             1996.41,1175.00 1998.28,1170.00 1998.28,1170.00
             1998.28,1170.00 1998.28,1163.00 1998.28,1163.00
             1998.28,1163.00 2000.96,1155.00 2000.96,1155.00
             2000.96,1155.00 2000.96,1149.00 2000.96,1149.00
             2000.96,1149.00 2002.68,1142.00 2002.68,1142.00
             2002.68,1142.00 2003.28,1135.00 2003.28,1135.00
             2003.28,1135.00 2006.00,1118.00 2006.00,1118.00
             2006.08,1111.70 2006.00,1109.41 2007.17,1103.00
             2007.17,1103.00 2008.86,1096.00 2008.86,1096.00
             2008.86,1096.00 2008.86,1076.00 2008.86,1076.00
             2009.18,1061.06 2013.82,1064.83 2014.00,1055.00
             2014.00,1055.00 2014.00,1034.00 2014.00,1034.00
             2013.95,1024.73 2011.92,1027.01 2010.46,1019.00
             2010.46,1019.00 2008.89,998.00 2008.89,998.00
             2008.89,998.00 2008.89,977.02 2008.89,977.02
             2009.80,974.12 2011.47,973.27 2014.00,972.00
             2012.18,971.06 2010.04,970.34 2008.73,968.69
             2006.09,965.35 2005.36,950.27 2006.29,946.00
             2006.72,944.06 2007.13,943.65 2008.00,942.00
             2000.96,930.27 2004.53,926.77 2003.46,920.00
             2003.46,920.00 2001.48,913.00 2001.48,913.00
             2001.48,913.00 2000.79,904.00 2000.79,904.00
             2000.79,904.00 1998.48,895.00 1998.48,895.00
             1998.48,895.00 1997.92,888.00 1997.92,888.00
             1997.92,888.00 1996.22,882.00 1996.22,882.00
             1996.22,882.00 1995.48,873.72 1995.48,873.72
             1995.48,873.72 1993.33,866.00 1993.33,866.00
             1993.33,866.00 1992.63,859.00 1992.63,859.00
             1992.63,859.00 1990.80,851.00 1990.80,851.00
             1990.80,851.00 1990.26,845.00 1990.26,845.00
             1990.26,845.00 1988.41,839.00 1988.41,839.00
             1988.41,839.00 1987.40,833.00 1987.40,833.00
             1987.40,833.00 1980.51,804.00 1980.51,804.00
             1980.51,804.00 1975.37,781.00 1975.37,781.00
             1975.37,781.00 1974.39,775.00 1974.39,775.00
             1974.39,775.00 1956.61,716.00 1956.61,716.00
             1946.68,687.67 1934.34,660.04 1917.65,635.00
             1905.18,616.30 1891.30,597.97 1874.00,583.44
             1857.61,569.66 1842.43,561.15 1823.00,552.58
             1823.00,552.58 1809.00,546.74 1809.00,546.74
             1809.00,546.74 1786.00,541.21 1786.00,541.21
             1786.00,541.21 1780.00,540.70 1780.00,540.70
             1773.45,539.76 1769.10,538.09 1762.00,538.00
             1757.63,537.95 1750.02,538.01 1746.05,536.28
             1742.51,534.73 1742.17,532.26 1740.32,530.99
             1738.50,529.73 1735.16,530.00 1733.00,530.00
             1733.00,530.00 1566.00,530.00 1566.00,530.00 Z
           M 1300.00,1682.00
           C 1305.84,1673.41 1312.79,1677.59 1321.00,1679.78
             1342.43,1685.49 1351.54,1695.30 1366.43,1710.37
             1374.29,1718.34 1379.63,1730.38 1382.59,1741.00
             1384.78,1748.85 1386.99,1756.80 1387.00,1765.00
             1387.00,1765.00 1387.00,1774.00 1387.00,1774.00
             1386.96,1781.79 1386.30,1780.40 1384.97,1787.00
             1381.80,1802.75 1377.36,1814.73 1367.00,1827.42
             1367.00,1827.42 1360.49,1835.68 1360.49,1835.68
             1358.60,1837.67 1356.19,1839.28 1354.04,1841.00
             1343.81,1849.17 1337.88,1853.97 1325.00,1858.04
             1318.13,1860.21 1308.18,1864.89 1306.00,1855.00
             1306.00,1855.00 1300.59,1861.15 1300.59,1861.15
             1296.44,1864.33 1289.74,1863.37 1287.00,1859.00
             1278.52,1862.93 1273.22,1860.47 1265.00,1857.58
             1248.74,1851.85 1235.38,1842.61 1224.58,1829.17
             1212.58,1814.23 1210.69,1810.20 1205.59,1792.00
             1203.39,1784.17 1203.01,1785.70 1203.00,1777.00
             1203.00,1777.00 1203.00,1761.00 1203.00,1761.00
             1203.04,1753.33 1203.67,1753.01 1205.59,1746.00
             1210.61,1727.65 1212.67,1723.92 1224.63,1709.00
             1228.27,1704.47 1228.11,1703.62 1233.00,1699.44
             1245.06,1689.13 1253.82,1684.09 1269.00,1679.83
             1274.13,1678.39 1274.08,1677.18 1280.00,1676.92
             1280.00,1676.92 1288.00,1676.92 1288.00,1676.92
             1294.16,1675.84 1298.90,1672.75 1300.00,1682.00 Z" />
</svg>
