<?xml version="1.0" encoding="UTF-8" standalone="no"?>
<!DOCTYPE svg PUBLIC "-//W3C//DTD SVG 20010904//EN"
              "http://www.w3.org/TR/2001/REC-SVG-20010904/DTD/svg10.dtd">

<svg xmlns="http://www.w3.org/2000/svg"
     width="361.263mm" height="361.263mm"
     viewBox="0 0 2048 2048">
  <path id="Selection"
        fill="#7851a9" stroke="black" stroke-width="1"
        d="M 1017.00,41.80
           C 1012.08,44.31 1011.26,45.98 1007.72,50.00
             996.86,62.32 1000.48,58.37 993.22,72.00
             988.54,80.78 985.62,81.20 981.68,88.00
             981.68,88.00 974.53,102.00 974.53,102.00
             974.53,102.00 964.69,116.00 964.69,116.00
             961.01,121.72 957.67,128.34 952.00,132.35
             947.14,135.79 936.95,137.73 931.00,137.96
             909.40,138.80 900.11,125.16 886.91,111.00
             886.91,111.00 861.43,84.00 861.43,84.00
             853.66,74.93 852.46,72.77 842.00,66.09
             837.98,63.52 833.86,61.22 829.00,62.88
             826.93,63.59 824.79,65.05 823.00,66.31
             810.50,75.08 812.48,85.88 808.25,99.00
             804.73,109.95 800.37,111.65 796.70,122.00
             796.70,122.00 790.54,146.00 790.54,146.00
             782.69,165.90 767.99,172.23 748.00,172.00
             731.09,171.80 729.24,166.00 717.00,157.75
             717.00,157.75 705.00,150.48 705.00,150.48
             705.00,150.48 692.00,139.92 692.00,139.92
             692.00,139.92 680.00,132.08 680.00,132.08
             680.00,132.08 670.00,123.85 670.00,123.85
             665.01,120.53 653.89,117.32 648.00,118.96
             645.30,119.70 643.38,120.89 641.65,123.11
             639.50,125.84 633.51,143.54 632.00,148.00
             629.81,154.50 627.83,163.18 627.17,170.00
             624.60,196.41 629.61,228.90 598.00,239.25
             592.64,241.01 589.52,241.06 584.00,241.00
             574.76,240.89 560.25,238.32 552.00,234.19
             552.00,234.19 537.00,224.90 537.00,224.90
             531.07,222.21 524.94,222.26 516.00,217.73
             516.00,217.73 501.00,208.99 501.00,208.99
             494.74,206.22 479.55,202.96 474.73,208.99
             472.11,212.65 472.01,219.80 472.00,224.00
             472.00,224.00 472.00,253.00 472.00,253.00
             472.00,253.00 473.00,269.00 473.00,269.00
             473.00,269.00 473.00,300.00 473.00,300.00
             472.97,318.64 467.35,332.36 449.00,339.54
             444.43,341.32 440.87,341.94 436.00,342.00
             423.42,342.14 393.97,339.00 382.00,335.57
             368.06,331.58 362.86,325.46 345.00,324.18
             328.65,323.01 321.68,332.39 323.17,348.00
             324.83,365.41 330.71,369.52 334.57,383.00
             337.72,393.96 340.87,421.46 341.00,433.00
             341.07,439.39 340.94,441.82 338.97,448.00
             337.74,451.88 336.16,455.60 333.90,459.00
             323.72,474.30 306.28,474.00 290.00,474.00
             290.00,474.00 266.00,474.00 266.00,474.00
             266.00,474.00 253.00,473.00 253.00,473.00
             253.00,473.00 223.00,473.00 223.00,473.00
             218.80,473.01 211.65,473.11 207.99,475.73
             201.96,480.55 205.22,495.74 207.99,502.00
             207.99,502.00 216.72,517.00 216.72,517.00
             216.72,517.00 224.32,539.00 224.32,539.00
             224.32,539.00 233.68,554.00 233.68,554.00
             237.42,561.89 239.90,576.24 240.00,585.00
             240.06,590.52 240.01,593.64 238.25,599.00
             237.13,602.44 234.90,607.00 232.90,610.00
             221.62,626.92 199.87,625.87 182.00,627.09
             170.53,627.87 158.98,629.06 148.00,632.67
             143.52,634.15 124.83,640.51 122.11,642.65
             120.21,644.13 119.08,645.67 118.43,648.00
             116.71,654.22 119.33,665.70 122.85,671.00
             122.85,671.00 131.79,682.00 131.79,682.00
             131.79,682.00 139.68,694.00 139.68,694.00
             139.68,694.00 148.79,705.00 148.79,705.00
             148.79,705.00 156.75,718.00 156.75,718.00
             165.00,730.24 170.80,732.09 171.00,749.00
             171.23,768.99 164.90,783.69 145.00,791.54
             145.00,791.54 121.00,797.70 121.00,797.70
             110.65,801.37 108.95,805.73 98.00,809.25
             84.67,813.55 74.29,811.46 65.16,824.00
             63.65,826.07 61.99,828.46 61.43,831.00
             60.49,835.29 62.86,839.51 65.09,843.00
             71.77,853.46 73.93,854.66 83.00,862.43
             83.00,862.43 110.00,887.91 110.00,887.91
             123.42,900.41 136.17,908.84 136.96,929.00
             137.23,935.96 135.24,947.28 131.20,953.00
             126.84,959.17 121.12,961.54 115.00,965.44
             115.00,965.44 101.00,975.53 101.00,975.53
             101.00,975.53 88.00,982.04 88.00,982.04
             80.21,986.48 79.98,989.43 71.00,994.22
             57.90,1001.20 59.50,998.72 47.91,1009.43
             44.70,1012.39 40.93,1015.41 40.24,1020.00
             39.34,1025.97 43.11,1028.60 47.00,1032.17
             60.51,1044.55 55.74,1040.19 71.00,1048.26
             71.00,1048.26 88.00,1060.48 88.00,1060.48
             88.00,1060.48 100.00,1066.46 100.00,1066.46
             100.00,1066.46 115.00,1076.95 115.00,1076.95
             121.34,1080.99 126.83,1083.53 131.35,1090.00
             134.84,1094.97 136.73,1103.96 136.96,1110.00
             137.74,1130.09 127.35,1138.65 114.00,1151.09
             114.00,1151.09 83.00,1179.96 83.00,1179.96
             73.59,1188.96 73.54,1187.24 65.44,1199.00
             62.92,1202.65 60.50,1206.35 61.41,1211.00
             61.95,1213.78 63.80,1216.71 65.44,1218.99
             73.84,1230.66 85.67,1229.21 98.00,1233.36
             108.08,1236.75 112.04,1241.80 121.00,1244.90
             121.00,1244.90 143.00,1250.46 143.00,1250.46
             164.08,1258.71 171.25,1272.40 171.00,1294.00
             170.82,1309.19 165.10,1312.76 157.35,1324.00
             157.35,1324.00 149.21,1337.00 149.21,1337.00
             149.21,1337.00 139.48,1349.00 139.48,1349.00
             139.48,1349.00 132.22,1360.00 132.22,1360.00
             132.22,1360.00 123.79,1370.00 123.79,1370.00
             119.59,1375.89 116.47,1386.87 118.43,1394.00
             120.57,1401.81 128.63,1402.82 135.00,1405.09
             135.00,1405.09 150.00,1410.85 150.00,1410.85
             184.06,1420.42 223.82,1406.62 237.38,1441.00
             239.36,1446.01 239.93,1448.63 240.00,1454.00
             240.00,1454.00 240.00,1458.00 240.00,1458.00
             239.91,1465.82 237.09,1482.11 233.62,1489.00
             233.62,1489.00 224.32,1504.00 224.32,1504.00
             224.32,1504.00 217.54,1524.00 217.54,1524.00
             215.13,1529.70 212.35,1532.13 209.47,1537.00
             205.62,1543.51 201.36,1560.90 208.14,1566.49
             211.09,1568.92 214.45,1568.82 218.00,1569.09
             228.23,1570.62 236.95,1569.02 247.00,1569.09
             247.00,1569.09 282.00,1569.09 282.00,1569.09
             295.59,1568.98 298.30,1566.54 314.00,1570.24
             317.28,1571.01 321.11,1572.24 324.00,1573.98
             329.45,1577.25 332.84,1581.44 335.74,1587.00
             343.81,1602.49 340.81,1614.55 339.17,1631.00
             337.99,1642.80 336.88,1654.90 332.40,1666.00
             327.72,1677.58 323.85,1682.60 323.09,1696.00
             322.91,1699.18 323.37,1701.89 323.92,1705.00
             325.85,1715.84 331.75,1717.88 342.00,1718.00
             363.54,1718.25 367.88,1710.86 381.00,1707.15
             395.69,1703.01 417.51,1701.28 433.00,1700.18
             437.10,1699.89 444.10,1701.32 448.00,1702.70
             465.90,1709.02 472.91,1722.76 473.00,1741.00
             473.00,1741.00 472.00,1819.00 472.00,1819.00
             472.01,1823.46 471.99,1829.11 474.72,1832.89
             479.50,1839.51 492.45,1837.05 499.00,1834.53
             506.76,1831.55 509.59,1828.02 516.00,1824.81
             516.00,1824.81 538.00,1817.09 538.00,1817.09
             543.73,1814.38 545.87,1810.99 554.00,1807.31
             561.66,1803.85 576.45,1801.79 585.00,1801.18
             601.03,1800.04 617.44,1811.99 622.25,1827.00
             628.46,1846.35 623.11,1872.29 633.20,1898.00
             633.20,1898.00 636.65,1907.00 636.65,1907.00
             638.83,1913.56 639.42,1920.52 647.01,1923.15
             653.96,1925.56 666.25,1921.48 672.00,1917.37
             672.00,1917.37 681.00,1909.78 681.00,1909.78
             681.00,1909.78 692.00,1902.52 692.00,1902.52
             692.00,1902.52 705.00,1892.09 705.00,1892.09
             705.00,1892.09 717.00,1884.64 717.00,1884.64
             721.75,1881.42 725.95,1877.03 731.00,1874.40
             735.74,1871.93 744.62,1870.40 750.00,1870.09
             768.40,1869.05 783.71,1880.22 790.55,1897.00
             790.55,1897.00 797.09,1922.00 797.09,1922.00
             800.29,1930.71 804.44,1931.57 808.65,1945.00
             812.59,1957.57 810.58,1966.36 822.00,1975.33
             824.38,1977.20 826.97,1979.14 830.00,1979.72
             840.59,1981.75 853.86,1966.98 860.17,1960.00
             860.17,1960.00 890.91,1927.00 890.91,1927.00
             901.95,1915.15 909.25,1905.21 927.00,1905.00
             927.00,1905.00 931.00,1905.00 931.00,1905.00
             938.15,1905.01 945.92,1906.08 951.96,1910.25
             957.66,1914.17 960.64,1920.32 964.23,1926.00
             964.23,1926.00 975.53,1942.00 975.53,1942.00
             975.53,1942.00 981.34,1954.00 981.34,1954.00
             981.34,1954.00 993.69,1971.00 993.69,1971.00
             1001.44,1985.08 995.60,1980.04 1008.91,1993.99
             1011.98,1997.19 1015.18,2001.21 1020.00,2001.48
             1024.99,2001.75 1028.51,1997.37 1031.58,1994.09
             1045.46,1979.20 1038.87,1984.78 1047.34,1970.00
             1047.34,1970.00 1059.12,1954.00 1059.12,1954.00
             1059.12,1954.00 1065.09,1942.00 1065.09,1942.00
             1065.09,1942.00 1076.31,1926.00 1076.31,1926.00
             1080.21,1919.94 1082.69,1914.05 1089.00,1909.97
             1096.30,1905.25 1104.62,1904.91 1113.00,1905.00
             1134.17,1905.25 1141.37,1918.35 1154.09,1932.00
             1154.09,1932.00 1179.71,1959.00 1179.71,1959.00
             1186.36,1966.64 1199.43,1982.18 1211.00,1979.61
             1213.98,1978.94 1216.62,1977.17 1219.00,1975.32
             1229.79,1966.91 1228.38,1955.97 1232.04,1944.00
             1235.42,1932.93 1240.27,1930.07 1243.29,1922.00
             1243.29,1922.00 1250.46,1896.00 1250.46,1896.00
             1257.40,1879.57 1273.10,1869.08 1291.00,1870.09
             1296.42,1870.40 1305.30,1871.88 1310.00,1874.53
             1310.00,1874.53 1324.00,1884.91 1324.00,1884.91
             1324.00,1884.91 1337.00,1893.04 1337.00,1893.04
             1337.00,1893.04 1348.00,1902.10 1348.00,1902.10
             1348.00,1902.10 1359.00,1909.22 1359.00,1909.22
             1359.00,1909.22 1370.00,1918.35 1370.00,1918.35
             1374.95,1921.81 1387.11,1925.20 1393.00,1923.35
             1400.90,1920.88 1401.97,1912.79 1404.34,1906.00
             1404.34,1906.00 1407.55,1898.00 1407.55,1898.00
             1417.29,1873.44 1411.59,1849.86 1418.44,1827.00
             1423.12,1811.36 1439.55,1800.01 1456.00,1801.18
             1465.70,1801.87 1479.20,1803.84 1488.00,1807.90
             1494.62,1810.95 1495.90,1814.02 1504.00,1817.69
             1504.00,1817.69 1524.00,1824.32 1524.00,1824.32
             1535.61,1829.76 1537.80,1836.33 1554.00,1836.96
             1565.00,1837.39 1566.95,1834.12 1568.28,1824.00
             1569.02,1818.36 1569.01,1816.61 1569.00,1811.00
             1569.00,1811.00 1568.00,1794.00 1568.00,1794.00
             1568.00,1794.00 1568.00,1759.00 1568.00,1759.00
             1567.98,1747.45 1565.83,1741.79 1568.90,1729.00
             1569.96,1724.58 1571.98,1718.68 1574.64,1715.00
             1580.67,1706.64 1593.89,1701.07 1604.00,1700.17
             1604.00,1700.17 1625.00,1701.91 1625.00,1701.91
             1636.87,1702.78 1650.80,1703.98 1662.00,1708.05
             1674.20,1712.49 1680.05,1717.83 1694.00,1718.00
             1708.40,1718.16 1716.80,1716.95 1717.00,1700.00
             1717.25,1678.45 1712.17,1678.81 1706.36,1661.00
             1703.03,1650.78 1701.70,1636.77 1700.91,1626.00
             1699.81,1610.89 1697.57,1600.06 1705.31,1586.00
             1712.07,1573.73 1721.86,1570.42 1735.00,1568.85
             1739.09,1568.36 1740.62,1567.87 1745.00,1568.04
             1745.00,1568.04 1758.00,1569.00 1758.00,1569.00
             1758.00,1569.00 1793.00,1569.00 1793.00,1569.00
             1793.00,1569.00 1808.00,1570.00 1808.00,1570.00
             1813.73,1570.06 1817.28,1570.03 1823.00,1569.28
             1833.12,1567.95 1836.39,1566.00 1835.96,1555.00
             1835.33,1538.80 1827.70,1533.83 1823.49,1525.00
             1823.49,1525.00 1816.69,1505.00 1816.69,1505.00
             1813.02,1496.90 1809.95,1495.62 1806.90,1489.00
             1802.84,1480.20 1800.87,1466.70 1800.18,1457.00
             1799.35,1445.34 1806.51,1430.46 1816.00,1423.80
             1819.30,1421.48 1823.16,1420.18 1827.00,1419.04
             1848.34,1412.70 1872.27,1418.36 1897.00,1408.55
             1897.00,1408.55 1905.00,1405.34 1905.00,1405.34
             1911.80,1402.96 1919.87,1401.90 1922.35,1394.00
             1924.28,1387.88 1920.92,1376.12 1917.35,1371.00
             1917.35,1371.00 1908.22,1360.00 1908.22,1360.00
             1908.22,1360.00 1901.10,1349.00 1901.10,1349.00
             1901.10,1349.00 1892.04,1338.00 1892.04,1338.00
             1892.04,1338.00 1883.91,1325.00 1883.91,1325.00
             1883.91,1325.00 1873.53,1311.00 1873.53,1311.00
             1870.88,1306.30 1869.40,1297.42 1869.09,1292.00
             1868.08,1274.10 1878.57,1258.40 1895.00,1251.46
             1895.00,1251.46 1921.00,1244.29 1921.00,1244.29
             1929.15,1241.24 1931.07,1236.87 1943.00,1233.20
             1955.72,1229.30 1966.55,1230.71 1975.07,1219.00
             1977.16,1216.14 1978.63,1213.61 1978.88,1210.00
             1979.34,1203.31 1971.40,1192.78 1966.83,1188.17
             1966.83,1188.17 1957.00,1179.83 1957.00,1179.83
             1957.00,1179.83 1930.00,1154.17 1930.00,1154.17
             1916.86,1142.28 1904.23,1133.50 1904.00,1114.00
             1903.91,1105.62 1904.25,1097.30 1908.97,1090.00
             1913.05,1083.69 1918.94,1081.21 1925.00,1077.31
             1925.00,1077.31 1941.00,1066.09 1941.00,1066.09
             1941.00,1066.09 1953.00,1060.12 1953.00,1060.12
             1959.81,1056.16 1962.09,1052.09 1970.00,1047.79
             1986.08,1039.05 1978.55,1046.22 1994.03,1031.72
             1997.62,1028.36 2001.75,1024.44 2000.31,1019.00
             1999.24,1014.93 1995.93,1012.52 1993.00,1009.83
             1979.50,997.48 1985.44,1002.79 1971.00,995.22
             1962.48,990.75 1960.67,986.71 1953.00,982.34
             1953.00,982.34 1941.00,976.53 1941.00,976.53
             1941.00,976.53 1925.00,965.23 1925.00,965.23
             1919.32,961.64 1913.17,958.66 1909.25,952.96
             1905.56,947.60 1904.08,939.42 1904.00,933.00
             1904.00,933.00 1904.00,929.00 1904.00,929.00
             1904.09,910.43 1913.55,903.51 1926.00,891.91
             1926.00,891.91 1958.00,862.09 1958.00,862.09
             1967.72,853.03 1967.47,854.64 1975.41,843.00
             1977.61,839.78 1980.12,836.12 1979.52,832.00
             1979.10,829.17 1977.04,826.23 1975.32,824.00
             1965.84,811.69 1958.30,813.92 1945.00,809.96
             1930.60,805.69 1930.03,801.41 1921.00,798.09
             1921.00,798.09 1900.00,792.97 1900.00,792.97
             1886.96,788.83 1874.28,778.66 1870.76,765.00
             1868.26,755.31 1868.72,740.98 1873.40,732.00
             1876.03,726.95 1880.42,722.75 1883.64,718.00
             1883.64,718.00 1891.78,705.00 1891.78,705.00
             1891.78,705.00 1900.76,694.00 1900.76,694.00
             1900.76,694.00 1908.09,683.00 1908.09,683.00
             1908.09,683.00 1917.20,672.00 1917.20,672.00
             1921.30,666.14 1925.22,652.74 1921.43,646.09
             1917.79,639.70 1906.75,638.08 1900.00,635.40
             1892.90,632.58 1889.63,631.28 1882.00,629.80
             1873.32,628.13 1860.87,627.10 1852.00,627.00
             1846.94,626.94 1833.92,625.32 1829.00,624.10
             1823.48,622.74 1818.32,620.60 1814.00,616.81
             1799.49,604.07 1799.02,589.56 1801.92,572.00
             1802.79,566.73 1804.18,559.86 1806.35,555.00
             1806.35,555.00 1816.68,538.00 1816.68,538.00
             1816.68,538.00 1821.70,522.00 1821.70,522.00
             1822.74,519.10 1823.87,516.64 1825.46,514.00
             1825.46,514.00 1830.08,507.00 1830.08,507.00
             1835.60,497.83 1841.82,477.29 1827.00,473.68
             1823.92,472.93 1821.13,473.00 1818.00,473.00
             1818.00,473.00 1789.00,473.00 1789.00,473.00
             1789.00,473.00 1773.00,474.00 1773.00,474.00
             1773.00,474.00 1751.00,474.00 1751.00,474.00
             1732.90,474.00 1714.77,474.34 1704.80,456.00
             1703.07,452.81 1701.76,449.52 1700.87,446.00
             1698.40,435.78 1699.85,428.18 1700.87,418.00
             1702.07,405.26 1702.71,392.28 1706.75,380.00
             1710.73,367.89 1716.81,362.63 1717.00,347.00
             1717.06,341.37 1717.16,333.80 1713.35,329.22
             1709.90,325.08 1700.15,323.74 1695.00,324.17
             1676.61,325.72 1673.63,331.23 1659.00,335.56
             1649.46,338.39 1620.16,341.88 1610.00,342.00
             1603.43,342.07 1600.43,342.21 1594.00,340.28
             1589.66,338.98 1586.79,337.80 1583.00,335.25
             1570.54,326.87 1567.59,313.22 1567.04,299.00
             1567.04,299.00 1568.00,283.00 1568.00,283.00
             1568.00,283.00 1568.00,248.00 1568.00,248.00
             1568.00,248.00 1569.00,229.00 1569.00,229.00
             1568.99,224.14 1568.52,212.82 1565.49,209.14
             1561.01,203.70 1549.01,205.64 1543.00,207.44
             1534.57,209.96 1531.45,214.63 1524.00,218.21
             1524.00,218.21 1503.00,225.32 1503.00,225.32
             1503.00,225.32 1486.00,235.54 1486.00,235.54
             1480.89,237.69 1472.58,239.23 1467.00,240.00
             1449.15,242.47 1432.94,240.50 1422.11,224.00
             1415.97,214.67 1415.65,201.78 1414.91,191.00
             1413.77,174.40 1413.10,157.57 1406.58,142.00
             1403.52,134.71 1401.46,121.39 1392.99,119.39
             1385.07,117.53 1374.33,120.67 1368.00,125.53
             1368.00,125.53 1359.00,133.22 1359.00,133.22
             1359.00,133.22 1348.00,140.48 1348.00,140.48
             1348.00,140.48 1336.00,150.21 1336.00,150.21
             1336.00,150.21 1323.00,158.35 1323.00,158.35
             1311.76,166.10 1308.19,171.82 1293.00,172.00
             1271.40,172.25 1257.71,165.08 1249.46,144.00
             1249.46,144.00 1243.90,122.00 1243.90,122.00
             1240.80,113.04 1235.75,109.08 1232.36,99.00
             1228.21,86.67 1229.66,74.84 1217.99,66.44
             1215.71,64.80 1212.78,62.95 1210.00,62.41
             1205.35,61.50 1201.65,63.92 1198.00,66.44
             1186.24,74.54 1187.96,74.59 1178.96,84.00
             1178.96,84.00 1150.09,115.00 1150.09,115.00
             1144.84,120.63 1139.55,127.69 1133.00,131.87
             1121.95,138.91 1104.96,139.55 1093.00,134.52
             1083.47,130.52 1079.95,121.96 1074.65,114.00
             1074.65,114.00 1064.87,100.00 1064.87,100.00
             1064.87,100.00 1058.24,87.00 1058.24,87.00
             1050.55,75.28 1052.30,82.09 1043.75,65.00
             1042.50,62.49 1040.97,59.24 1039.37,57.00
             1037.09,53.83 1027.35,43.23 1023.99,41.80
             1021.29,40.75 1019.67,41.13 1017.00,41.80 Z
           M 1010.00,187.29
           C 1018.62,186.48 1030.04,186.91 1038.00,190.52
             1038.00,190.52 1050.00,197.69 1050.00,197.69
             1060.07,203.23 1068.25,207.22 1075.21,217.00
             1079.59,223.15 1081.40,231.04 1084.06,238.00
             1087.29,246.43 1090.97,251.25 1090.97,261.00
             1090.97,270.54 1087.36,277.52 1083.86,286.00
             1080.29,294.66 1080.20,298.93 1074.10,307.00
             1065.55,318.32 1059.87,320.35 1048.00,326.25
             1030.66,334.86 1033.27,336.24 1013.00,336.00
             1002.86,335.87 994.84,330.66 986.00,326.25
             979.88,323.19 971.06,319.73 966.46,314.82
             963.39,311.54 960.72,306.76 958.12,303.00
             948.90,289.70 944.03,284.02 944.00,267.00
             943.98,256.90 943.30,248.82 946.52,239.00
             949.25,230.67 951.97,228.71 956.84,222.00
             960.47,217.01 962.43,212.48 967.04,208.10
             970.80,204.54 975.60,202.45 980.00,199.80
             991.98,192.57 995.77,189.46 1010.00,187.29 Z
           M 871.00,287.28
           C 885.55,285.94 897.80,291.88 907.96,302.04
             907.96,302.04 918.00,313.00 918.00,313.00
             918.00,313.00 973.00,371.00 973.00,371.00
             973.00,371.00 984.04,382.67 984.04,382.67
             989.52,387.40 1006.67,395.63 1014.00,396.22
             1020.10,396.70 1024.60,394.24 1030.00,392.01
             1033.84,390.43 1037.49,389.20 1041.00,386.89
             1045.66,383.83 1062.13,367.77 1066.42,363.04
             1066.42,363.04 1078.83,351.83 1078.83,351.83
             1078.83,351.83 1085.04,345.09 1085.04,345.09
             1085.04,345.09 1114.00,317.96 1114.00,317.96
             1114.00,317.96 1130.00,302.83 1130.00,302.83
             1141.61,292.33 1144.57,288.76 1161.00,287.17
             1169.39,286.36 1186.15,289.28 1194.00,292.45
             1194.00,292.45 1213.00,300.28 1213.00,300.28
             1213.00,300.28 1244.00,306.04 1244.00,306.04
             1255.04,309.40 1257.28,313.12 1266.00,316.54
             1266.00,316.54 1292.00,323.09 1292.00,323.09
             1292.00,323.09 1312.00,333.69 1312.00,333.69
             1312.00,333.69 1333.00,340.90 1333.00,340.90
             1333.00,340.90 1350.00,351.39 1350.00,351.39
             1350.00,351.39 1367.00,358.27 1367.00,358.27
             1367.00,358.27 1383.00,368.49 1383.00,368.49
             1383.00,368.49 1397.00,375.27 1397.00,375.27
             1397.00,375.27 1409.00,383.66 1409.00,383.66
             1409.00,383.66 1424.00,391.70 1424.00,391.70
             1430.90,396.17 1432.06,398.68 1437.00,402.21
             1437.00,402.21 1449.00,409.10 1449.00,409.10
             1449.00,409.10 1459.00,417.08 1459.00,417.08
             1459.00,417.08 1473.00,426.52 1473.00,426.52
             1473.00,426.52 1485.00,436.72 1485.00,436.72
             1485.00,436.72 1494.99,444.30 1494.99,444.30
             1494.99,444.30 1503.09,452.54 1503.09,452.54
             1503.09,452.54 1513.00,460.18 1513.00,460.18
             1513.00,460.18 1538.29,484.83 1538.29,484.83
             1538.29,484.83 1547.70,493.29 1547.70,493.29
             1547.70,493.29 1556.04,502.96 1556.04,502.96
             1556.04,502.96 1564.82,511.04 1564.82,511.04
             1564.82,511.04 1571.18,519.00 1571.18,519.00
             1571.18,519.00 1580.82,529.00 1580.82,529.00
             1580.82,529.00 1588.62,538.96 1588.62,538.96
             1588.62,538.96 1596.68,547.04 1596.68,547.04
             1596.68,547.04 1606.89,561.00 1606.89,561.00
             1606.89,561.00 1615.08,571.00 1615.08,571.00
             1615.08,571.00 1623.93,585.00 1623.93,585.00
             1623.93,585.00 1632.90,596.00 1632.90,596.00
             1632.90,596.00 1639.79,608.00 1639.79,608.00
             1643.22,612.83 1646.13,614.98 1649.74,621.00
             1649.74,621.00 1662.53,650.00 1662.53,650.00
             1666.90,661.50 1661.27,666.27 1657.04,676.00
             1657.04,676.00 1650.54,697.00 1650.54,697.00
             1648.36,702.18 1645.91,704.54 1643.09,709.00
             1637.60,717.70 1637.51,727.34 1633.19,736.00
             1633.19,736.00 1623.87,752.00 1623.87,752.00
             1623.87,752.00 1616.22,774.00 1616.22,774.00
             1609.18,788.73 1607.16,785.97 1602.12,805.00
             1597.55,822.23 1588.78,829.11 1593.48,841.00
             1598.30,853.19 1610.27,867.74 1622.00,873.62
             1622.00,873.62 1644.00,880.99 1644.00,880.99
             1648.99,883.52 1651.99,887.11 1659.00,890.12
             1659.00,890.12 1680.00,897.26 1680.00,897.26
             1688.83,901.56 1691.24,904.89 1702.00,908.66
             1702.00,908.66 1720.00,914.79 1720.00,914.79
             1720.00,914.79 1736.00,924.56 1736.00,924.56
             1742.17,928.00 1746.77,928.73 1751.36,935.01
             1756.85,942.53 1756.48,953.14 1757.09,962.00
             1757.09,962.00 1759.08,984.00 1759.08,984.00
             1759.08,984.00 1759.08,994.00 1759.08,994.00
             1759.08,994.00 1760.99,1013.00 1760.99,1013.00
             1760.99,1013.00 1759.06,1031.00 1759.06,1031.00
             1759.06,1031.00 1759.06,1041.00 1759.06,1041.00
             1759.06,1041.00 1758.08,1049.00 1758.08,1049.00
             1757.23,1059.70 1756.02,1072.77 1746.00,1079.01
             1741.32,1081.92 1733.47,1082.93 1728.00,1083.00
             1728.00,1083.00 1686.00,1083.00 1686.00,1083.00
             1675.20,1083.02 1673.02,1085.20 1673.00,1096.00
             1673.00,1096.00 1673.00,1113.00 1673.00,1113.00
             1673.00,1113.00 1672.00,1128.00 1672.00,1128.00
             1671.98,1138.43 1671.73,1148.69 1669.92,1159.00
             1667.23,1174.28 1664.18,1173.56 1657.06,1185.00
             1649.58,1197.03 1647.41,1202.54 1635.00,1211.37
             1635.00,1211.37 1617.00,1220.31 1617.00,1220.31
             1617.00,1220.31 1604.00,1228.10 1604.00,1228.10
             1598.24,1230.70 1583.45,1232.92 1577.00,1233.00
             1563.05,1233.16 1544.04,1233.98 1531.00,1229.30
             1531.00,1229.30 1513.00,1219.26 1513.00,1219.26
             1503.41,1214.58 1497.84,1213.64 1490.18,1205.00
             1484.84,1198.97 1482.04,1191.32 1478.99,1184.00
             1475.09,1174.62 1472.01,1171.56 1469.37,1161.00
             1469.37,1161.00 1463.10,1122.00 1463.10,1122.00
             1460.57,1111.77 1456.47,1109.25 1452.87,1101.00
             1452.87,1101.00 1446.68,1082.00 1446.68,1082.00
             1443.67,1075.54 1439.75,1071.71 1436.09,1066.00
             1436.09,1066.00 1429.04,1053.00 1429.04,1053.00
             1426.34,1048.87 1422.47,1045.76 1419.32,1042.00
             1419.32,1042.00 1413.82,1035.00 1413.82,1035.00
             1413.82,1035.00 1392.00,1014.60 1392.00,1014.60
             1381.36,1006.49 1385.05,1009.55 1375.96,1000.00
             1370.08,993.82 1365.65,990.10 1365.09,981.00
             1364.24,967.19 1373.68,963.86 1382.00,955.96
             1394.24,944.33 1393.10,947.61 1403.00,939.54
             1403.00,939.54 1413.00,931.00 1413.00,931.00
             1413.00,931.00 1425.00,921.70 1425.00,921.70
             1425.00,921.70 1440.00,907.83 1440.00,907.83
             1444.31,903.93 1459.09,887.69 1462.51,883.00
             1462.51,883.00 1469.76,872.00 1469.76,872.00
             1473.71,866.67 1476.97,864.48 1480.66,858.00
             1480.66,858.00 1486.81,844.00 1486.81,844.00
             1490.89,835.85 1494.79,834.15 1497.79,824.00
             1497.79,824.00 1500.28,807.00 1500.28,807.00
             1503.20,784.82 1503.04,788.58 1503.00,766.00
             1503.00,766.00 1500.16,734.00 1500.16,734.00
             1499.41,726.95 1499.03,718.72 1496.96,712.00
             1494.28,703.33 1489.77,700.15 1486.52,693.00
             1486.52,693.00 1480.68,678.00 1480.68,678.00
             1477.56,672.20 1473.44,668.25 1469.77,663.00
             1469.77,663.00 1461.47,650.00 1461.47,650.00
             1461.47,650.00 1453.18,641.00 1453.18,641.00
             1453.18,641.00 1445.91,632.00 1445.91,632.00
             1445.91,632.00 1426.00,613.52 1426.00,613.52
             1426.00,613.52 1413.00,604.34 1413.00,604.34
             1413.00,604.34 1401.00,595.09 1401.00,595.09
             1401.00,595.09 1391.00,589.55 1391.00,589.55
             1391.00,589.55 1376.00,579.27 1376.00,579.27
             1376.00,579.27 1358.00,572.56 1358.00,572.56
             1350.78,569.35 1347.81,565.52 1340.00,562.70
             1340.00,562.70 1310.00,556.12 1310.00,556.12
             1297.46,553.14 1295.03,550.21 1285.00,547.03
             1278.66,545.01 1268.69,544.01 1262.00,544.00
             1262.00,544.00 497.00,544.00 497.00,544.00
             483.02,543.98 468.76,538.99 470.19,522.00
             471.16,510.39 478.50,507.52 485.91,500.70
             485.91,500.70 497.00,489.58 497.00,489.58
             497.00,489.58 510.17,476.51 510.17,476.51
             510.17,476.51 518.96,469.70 518.96,469.70
             518.96,469.70 527.04,461.17 527.04,461.17
             527.04,461.17 537.91,452.54 537.91,452.54
             537.91,452.54 546.01,444.18 546.01,444.18
             546.01,444.18 555.00,437.49 555.00,437.49
             555.00,437.49 567.00,427.31 567.00,427.31
             567.00,427.31 581.00,418.10 581.00,418.10
             581.00,418.10 593.00,408.44 593.00,408.44
             593.00,408.44 604.00,401.90 604.00,401.90
             604.00,401.90 618.00,391.09 618.00,391.09
             618.00,391.09 633.00,383.17 633.00,383.17
             633.00,383.17 644.00,375.27 644.00,375.27
             644.00,375.27 661.00,366.55 661.00,366.55
             661.00,366.55 674.00,358.27 674.00,358.27
             674.00,358.27 689.00,352.22 689.00,352.22
             689.00,352.22 708.00,340.87 708.00,340.87
             708.00,340.87 730.00,333.55 730.00,333.55
             730.00,333.55 750.00,323.06 750.00,323.06
             750.00,323.06 774.00,316.91 774.00,316.91
             783.35,313.56 785.44,309.50 799.00,305.74
             799.00,305.74 832.00,299.25 832.00,299.25
             832.00,299.25 852.00,291.08 852.00,291.08
             858.17,288.96 864.59,288.23 871.00,287.28 Z
           M 439.00,723.14
           C 439.00,723.14 516.00,723.14 516.00,723.14
             525.98,723.02 535.79,724.94 540.45,735.00
             544.02,742.72 543.00,759.09 543.00,768.00
             543.00,768.00 543.00,835.00 543.00,835.00
             543.00,835.00 543.00,1207.00 543.00,1207.00
             542.99,1211.73 542.92,1214.33 541.76,1219.00
             537.84,1234.87 525.37,1235.00 512.00,1235.00
             512.00,1235.00 494.00,1235.00 494.00,1235.00
             494.00,1235.00 342.00,1235.00 342.00,1235.00
             336.36,1234.99 334.51,1234.94 329.00,1233.28
             313.87,1228.72 305.82,1217.02 302.81,1202.00
             302.81,1202.00 299.58,1182.00 299.58,1182.00
             299.58,1182.00 289.42,1152.00 289.42,1152.00
             285.21,1133.18 284.03,1099.78 284.00,1080.00
             284.00,1080.00 283.00,1061.00 283.00,1061.00
             283.00,1061.00 282.00,1047.00 282.00,1047.00
             282.00,1047.00 280.00,1010.00 280.00,1010.00
             280.00,1010.00 282.00,980.00 282.00,980.00
             282.00,980.00 282.91,968.00 282.91,968.00
             282.91,968.00 283.83,953.00 283.83,953.00
             284.93,941.53 284.27,935.21 293.09,926.04
             308.33,910.20 317.48,913.44 333.00,906.09
             338.62,903.43 341.14,899.89 348.00,896.88
             348.00,896.88 369.00,890.18 369.00,890.18
             376.48,886.54 379.61,881.84 389.00,878.75
             395.43,876.63 400.49,876.36 407.00,873.02
             407.00,873.02 421.00,863.47 421.00,863.47
             425.49,860.70 429.86,859.35 433.20,854.91
             437.06,849.78 439.21,836.45 438.96,830.00
             438.67,822.44 436.91,812.29 434.85,805.00
             432.15,795.46 427.97,792.90 424.13,785.00
             418.66,773.76 417.98,763.15 418.00,751.00
             418.01,744.11 418.83,736.58 423.39,731.04
             427.65,725.86 432.69,724.35 439.00,723.14 Z
           M 303.00,724.28
           C 314.32,723.23 333.99,724.19 344.00,729.65
             348.55,732.13 351.96,736.15 356.00,739.33
             360.39,742.79 363.91,744.57 367.67,749.01
             371.51,753.54 373.47,758.96 376.45,764.00
             382.66,774.50 386.85,781.29 387.00,794.00
             387.08,801.34 386.56,809.21 383.48,816.00
             383.48,816.00 374.76,831.00 374.76,831.00
             368.96,842.39 368.88,843.46 359.00,852.15
             355.80,854.98 353.84,856.97 350.00,859.10
             339.91,864.67 320.54,867.13 309.00,867.00
             300.49,866.90 282.35,863.16 275.00,859.10
             271.09,856.94 260.24,847.43 257.33,843.99
             253.25,839.16 250.74,832.55 247.69,827.00
             241.88,816.43 238.16,814.35 238.00,801.00
             237.77,780.73 239.17,780.62 248.69,763.00
             251.27,758.24 253.77,752.06 257.33,748.09
             260.38,744.69 264.50,742.56 268.00,739.68
             272.54,735.95 276.63,731.49 282.00,728.91
             288.79,725.65 295.74,725.33 303.00,724.28 Z
           M 1718.00,725.28
           C 1723.71,724.77 1723.77,725.31 1729.00,725.83
             1747.03,727.64 1745.19,728.76 1760.00,738.31
             1770.26,744.92 1778.61,750.96 1784.69,762.00
             1789.78,771.26 1791.98,785.46 1792.00,796.00
             1792.01,806.01 1790.35,826.20 1786.09,835.00
             1783.71,839.89 1779.73,843.14 1776.04,847.00
             1772.40,850.81 1769.32,855.27 1765.00,858.36
             1761.38,860.96 1752.54,864.21 1748.00,866.15
             1737.17,870.76 1731.95,873.14 1720.00,873.00
             1712.20,872.90 1706.20,869.73 1699.00,867.05
             1692.88,864.77 1681.83,861.24 1677.01,857.47
             1672.65,854.06 1669.74,849.29 1666.33,845.00
             1662.39,840.04 1658.11,836.84 1655.33,831.00
             1652.34,824.73 1651.56,817.80 1650.84,811.00
             1649.53,798.84 1649.63,781.41 1654.26,770.00
             1656.93,763.40 1660.15,761.32 1664.33,756.00
             1667.31,752.21 1669.34,748.54 1673.04,745.33
             1673.04,745.33 1685.00,737.56 1685.00,737.56
             1689.77,734.22 1692.40,731.26 1698.00,729.07
             1705.49,726.14 1710.44,726.37 1718.00,725.28 Z
           M 859.00,740.07
           C 859.00,740.07 913.00,740.07 913.00,740.07
             913.00,740.07 1017.00,740.07 1017.00,740.07
             1017.00,740.07 1110.00,740.07 1110.00,740.07
             1118.89,740.01 1128.05,741.84 1136.00,745.98
             1136.00,745.98 1149.00,754.22 1149.00,754.22
             1149.00,754.22 1168.00,762.48 1168.00,762.48
             1173.24,765.64 1179.52,772.52 1184.00,777.00
             1187.42,780.42 1192.30,784.84 1194.59,789.00
             1197.59,794.49 1199.26,803.76 1200.13,810.00
             1202.69,828.38 1202.08,853.17 1189.68,868.00
             1183.80,875.02 1176.44,879.28 1169.00,884.34
             1163.85,887.85 1159.92,891.20 1154.00,893.54
             1154.00,893.54 1137.00,898.30 1137.00,898.30
             1131.52,901.11 1129.40,906.41 1124.83,910.06
             1119.32,914.45 1111.77,914.99 1105.00,915.00
             1105.00,915.00 868.00,915.00 868.00,915.00
             848.81,914.97 840.03,907.63 840.00,888.00
             840.00,888.00 840.00,765.00 840.00,765.00
             840.16,751.44 845.19,743.00 859.00,740.07 Z
           M 861.00,1077.10
           C 861.00,1077.10 934.00,1077.10 934.00,1077.10
             934.00,1077.10 1073.00,1077.10 1073.00,1077.10
             1081.19,1077.01 1087.96,1078.01 1095.00,1082.55
             1095.00,1082.55 1107.00,1091.90 1107.00,1091.90
             1107.00,1091.90 1122.96,1101.53 1122.96,1101.53
             1126.00,1103.99 1128.33,1107.20 1131.04,1110.00
             1131.04,1110.00 1142.67,1121.01 1142.67,1121.01
             1142.67,1121.01 1158.54,1145.00 1158.54,1145.00
             1164.84,1155.36 1165.33,1164.77 1168.72,1176.00
             1171.72,1185.95 1175.96,1190.07 1178.76,1202.00
             1178.76,1202.00 1183.43,1243.00 1183.43,1243.00
             1185.73,1259.02 1192.00,1266.40 1195.35,1281.00
             1195.35,1281.00 1201.48,1322.00 1201.48,1322.00
             1203.97,1331.68 1207.52,1334.95 1211.14,1343.00
             1211.14,1343.00 1217.99,1363.00 1217.99,1363.00
             1220.45,1367.80 1224.67,1371.58 1227.79,1376.00
             1237.73,1390.08 1235.36,1388.21 1247.83,1402.00
             1247.83,1402.00 1255.01,1409.82 1255.01,1409.82
             1259.53,1413.89 1264.98,1416.72 1270.00,1420.09
             1282.20,1428.28 1281.72,1430.97 1298.00,1431.00
             1298.00,1431.00 1578.00,1431.00 1578.00,1431.00
             1589.92,1431.02 1611.13,1435.01 1611.96,1450.00
             1612.40,1458.09 1609.80,1460.48 1605.81,1467.00
             1599.06,1478.04 1601.65,1476.20 1592.07,1486.09
             1592.07,1486.09 1582.68,1498.00 1582.68,1498.00
             1582.68,1498.00 1572.18,1509.00 1572.18,1509.00
             1572.18,1509.00 1565.82,1516.99 1565.82,1516.99
             1563.14,1519.96 1560.89,1521.58 1558.00,1524.16
             1547.44,1533.60 1542.70,1537.32 1528.00,1536.99
             1518.91,1536.78 1503.65,1534.18 1495.00,1531.33
             1495.00,1531.33 1475.00,1523.89 1475.00,1523.89
             1475.00,1523.89 1429.00,1517.73 1429.00,1517.73
             1429.00,1517.73 1404.00,1513.57 1404.00,1513.57
             1395.75,1513.60 1382.74,1518.41 1376.04,1523.10
             1365.70,1530.34 1365.97,1547.84 1362.33,1559.00
             1362.33,1559.00 1353.24,1584.00 1353.24,1584.00
             1353.24,1584.00 1348.39,1625.00 1348.39,1625.00
             1345.00,1643.74 1342.96,1641.20 1338.75,1654.00
             1335.58,1663.64 1335.44,1676.12 1328.67,1683.96
             1324.85,1688.39 1306.61,1700.89 1301.00,1702.91
             1301.00,1702.91 1282.00,1707.75 1282.00,1707.75
             1282.00,1707.75 1259.00,1718.66 1259.00,1718.66
             1259.00,1718.66 1229.00,1725.15 1229.00,1725.15
             1216.82,1728.58 1212.68,1733.51 1199.00,1736.58
             1199.00,1736.58 1149.00,1743.24 1149.00,1743.24
             1149.00,1743.24 1127.00,1750.52 1127.00,1750.52
             1117.65,1752.91 1094.96,1754.89 1085.00,1755.00
             1085.00,1755.00 1070.00,1756.00 1070.00,1756.00
             1070.00,1756.00 1039.00,1756.00 1039.00,1756.00
             1039.00,1756.00 1024.00,1757.00 1024.00,1757.00
             1024.00,1757.00 1002.00,1756.00 1002.00,1756.00
             1002.00,1756.00 971.00,1756.00 971.00,1756.00
             971.00,1756.00 951.00,1755.00 951.00,1755.00
             942.85,1754.90 921.83,1752.53 914.00,1750.52
             914.00,1750.52 889.00,1742.81 889.00,1742.81
             889.00,1742.81 841.00,1736.58 841.00,1736.58
             827.90,1733.65 825.10,1729.75 814.00,1726.00
             814.00,1726.00 783.00,1719.25 783.00,1719.25
             783.00,1719.25 763.00,1709.45 763.00,1709.45
             763.00,1709.45 739.00,1702.54 739.00,1702.54
             730.57,1699.24 728.94,1696.16 722.00,1692.31
             713.43,1687.56 706.95,1684.82 701.47,1676.00
             688.23,1654.69 691.59,1634.12 687.39,1611.00
             684.31,1594.09 678.72,1593.51 675.43,1574.00
             675.43,1574.00 670.07,1537.00 670.07,1537.00
             666.03,1526.99 652.13,1515.67 643.00,1510.12
             628.40,1501.23 614.03,1512.10 600.00,1515.85
             600.00,1515.85 547.00,1523.48 547.00,1523.48
             533.92,1526.82 521.08,1535.54 507.00,1534.90
             495.90,1534.39 483.70,1526.73 476.17,1518.91
             476.17,1518.91 468.08,1509.04 468.08,1509.04
             468.08,1509.04 458.32,1499.00 458.32,1499.00
             458.32,1499.00 451.68,1490.00 451.68,1490.00
             451.68,1490.00 441.63,1479.00 441.63,1479.00
             441.63,1479.00 434.19,1466.00 434.19,1466.00
             431.65,1461.85 428.70,1458.01 428.20,1453.00
             426.51,1436.17 449.31,1431.02 462.00,1431.00
             462.00,1431.00 563.00,1431.00 563.00,1431.00
             563.00,1431.00 1011.00,1431.00 1011.00,1431.00
             1014.76,1430.99 1019.65,1431.30 1022.57,1428.49
             1024.99,1426.16 1024.95,1423.10 1025.00,1420.00
             1025.00,1420.00 1025.00,1388.00 1025.00,1388.00
             1025.00,1388.00 1025.00,1248.00 1025.00,1248.00
             1024.99,1243.44 1025.36,1239.68 1020.94,1236.93
             1016.90,1234.42 1008.78,1235.00 1004.00,1235.00
             1004.00,1235.00 966.00,1235.00 966.00,1235.00
             966.00,1235.00 866.00,1235.00 866.00,1235.00
             847.01,1234.97 840.03,1226.56 840.00,1208.00
             840.00,1208.00 840.00,1104.00 840.00,1104.00
             840.02,1088.14 844.71,1079.99 861.00,1077.10 Z
           M 575.00,1554.29
           C 590.10,1552.87 594.42,1556.25 607.00,1562.74
             616.28,1567.53 623.07,1569.59 630.91,1577.17
             639.85,1585.82 641.54,1593.23 646.01,1604.00
             650.16,1613.99 653.19,1617.39 653.79,1629.00
             654.26,1638.00 649.72,1646.03 646.29,1654.00
             642.97,1661.70 641.65,1667.93 636.39,1675.00
             630.05,1683.53 621.09,1688.31 612.00,1693.30
             600.75,1699.50 600.45,1701.54 587.00,1703.15
             583.53,1703.57 581.66,1704.12 578.00,1703.91
             564.13,1703.12 556.69,1699.46 545.00,1692.45
             540.73,1689.89 532.41,1685.66 529.09,1682.67
             525.36,1679.32 522.22,1673.31 519.33,1669.00
             515.91,1663.91 512.36,1659.69 509.87,1654.00
             504.78,1642.33 504.15,1623.23 507.49,1611.00
             509.72,1602.83 515.99,1594.02 520.67,1587.00
             523.33,1583.01 526.53,1577.56 530.09,1574.52
             536.22,1569.28 544.75,1566.05 552.00,1562.69
             563.66,1557.30 560.87,1556.45 575.00,1554.29 Z
           M 1454.00,1558.71
           C 1463.35,1559.25 1487.38,1566.30 1495.00,1571.13
             1499.29,1573.86 1512.31,1586.78 1515.15,1591.00
             1519.74,1597.81 1527.11,1622.50 1527.83,1631.00
             1528.48,1638.71 1524.72,1645.89 1522.35,1653.00
             1519.88,1660.42 1518.38,1668.33 1514.04,1675.00
             1509.97,1681.25 1503.89,1685.55 1498.00,1689.88
             1485.92,1698.78 1477.66,1704.81 1462.00,1705.00
             1452.32,1705.11 1441.24,1705.56 1432.00,1702.48
             1424.46,1699.96 1421.16,1696.18 1415.00,1691.75
             1410.53,1688.53 1407.07,1687.05 1403.09,1682.96
             1398.86,1678.61 1397.83,1675.46 1394.49,1671.00
             1385.09,1658.46 1382.03,1654.41 1382.00,1638.00
             1381.98,1628.30 1381.25,1618.31 1384.55,1609.00
             1387.51,1600.63 1392.93,1594.03 1398.12,1587.00
             1402.11,1581.58 1405.17,1576.77 1411.00,1572.96
             1417.47,1568.74 1426.63,1566.13 1434.00,1563.67
             1442.40,1560.86 1444.74,1558.94 1454.00,1558.71 Z" />
</svg>
