<?xml version="1.0" encoding="UTF-8" standalone="no"?>
<!DOCTYPE svg PUBLIC "-//W3C//DTD SVG 20010904//EN"
              "http://www.w3.org/TR/2001/REC-SVG-20010904/DTD/svg10.dtd">

<svg xmlns="http://www.w3.org/2000/svg"
     width="361.263mm" height="361.263mm"
     viewBox="0 0 2048 2048">
  <path id="Selection"
        fill="#7851a9" stroke="black" stroke-width="1"
        d="M 977.00,34.00
           C 972.18,39.96 963.38,40.91 956.00,40.74
             956.00,40.74 950.00,40.74 950.00,40.74
             950.00,40.74 940.00,43.76 940.00,43.76
             933.78,45.30 932.34,44.55 927.00,45.11
             922.60,45.57 921.02,47.28 917.00,48.48
             917.00,48.48 907.00,50.48 907.00,50.48
             907.00,50.48 900.00,52.95 900.00,52.95
             900.00,52.95 891.00,54.38 891.00,54.38
             891.00,54.38 883.00,57.21 883.00,57.21
             883.00,57.21 875.00,58.79 875.00,58.79
             875.00,58.79 855.00,66.17 855.00,66.17
             855.00,66.17 849.00,67.83 849.00,67.83
             849.00,67.83 843.00,70.32 843.00,70.32
             843.00,70.32 837.00,71.69 837.00,71.69
             837.00,71.69 830.00,74.87 830.00,74.87
             830.00,74.87 823.00,77.05 823.00,77.05
             823.00,77.05 792.00,92.02 792.00,92.02
             792.00,92.02 776.00,99.47 776.00,99.47
             776.00,99.47 748.00,116.39 748.00,116.39
             748.00,116.39 721.00,133.56 721.00,133.56
             721.00,133.56 688.00,158.58 688.00,158.58
             688.00,158.58 677.17,166.67 677.17,166.67
             677.17,166.67 641.07,200.17 641.07,200.17
             641.07,200.17 630.20,212.41 630.20,212.41
             630.20,212.41 612.91,231.00 612.91,231.00
             612.91,231.00 604.32,240.00 604.32,240.00
             604.32,240.00 586.11,264.00 586.11,264.00
             569.92,285.62 554.25,308.33 541.14,332.00
             541.14,332.00 526.62,362.00 526.62,362.00
             526.62,362.00 515.88,384.00 515.88,384.00
             515.88,384.00 513.39,392.00 513.39,392.00
             513.39,392.00 506.64,410.00 506.64,410.00
             506.64,410.00 497.55,436.00 497.55,436.00
             497.55,436.00 496.06,444.00 496.06,444.00
             496.06,444.00 493.26,452.00 493.26,452.00
             493.26,452.00 491.68,461.00 491.68,461.00
             491.68,461.00 488.55,469.00 488.55,469.00
             488.55,469.00 487.47,477.00 487.47,477.00
             487.47,477.00 484.49,485.00 484.49,485.00
             484.49,485.00 483.57,496.00 483.57,496.00
             482.27,505.06 481.53,503.11 479.84,509.00
             478.48,513.74 482.30,530.26 473.00,538.00
             473.00,538.00 474.79,546.00 474.79,546.00
             475.95,554.36 474.66,563.65 474.09,572.00
             473.61,578.96 473.91,586.30 471.52,593.00
             468.72,600.83 464.12,598.89 462.02,601.59
             460.69,603.32 460.03,612.52 460.00,615.00
             460.00,615.00 460.00,727.00 460.00,727.00
             460.00,727.00 460.00,922.00 460.00,922.00
             460.00,924.18 459.77,927.67 461.02,929.51
             462.94,932.31 471.47,933.76 469.42,941.00
             467.16,948.99 458.83,952.59 452.00,955.37
             452.00,955.37 446.00,958.13 446.00,958.13
             446.00,958.13 439.00,959.89 439.00,959.89
             439.00,959.89 421.00,966.87 421.00,966.87
             421.00,966.87 414.00,968.68 414.00,968.68
             414.00,968.68 407.00,971.67 407.00,971.67
             390.46,976.91 373.31,981.98 360.42,994.44
             350.84,1003.70 343.98,1012.49 339.07,1025.00
             335.91,1033.04 339.59,1042.29 329.00,1046.00
             329.00,1046.00 329.00,1808.00 329.00,1808.00
             339.94,1811.82 336.13,1821.16 338.99,1829.00
             343.94,1842.60 348.65,1848.64 358.58,1858.83
             362.75,1863.11 364.23,1863.50 369.00,1866.53
             380.90,1874.08 381.73,1873.52 394.00,1878.47
             394.00,1878.47 419.00,1887.60 419.00,1887.60
             419.00,1887.60 436.00,1894.34 436.00,1894.34
             436.00,1894.34 442.00,1896.13 442.00,1896.13
             442.00,1896.13 460.00,1903.16 460.00,1903.16
             460.00,1903.16 467.00,1904.84 467.00,1904.84
             467.00,1904.84 473.00,1907.33 473.00,1907.33
             473.00,1907.33 481.00,1909.26 481.00,1909.26
             481.00,1909.26 488.00,1912.45 488.00,1912.45
             488.00,1912.45 494.00,1913.53 494.00,1913.53
             494.00,1913.53 501.00,1916.20 501.00,1916.20
             501.00,1916.20 508.00,1917.80 508.00,1917.80
             508.00,1917.80 515.00,1920.60 515.00,1920.60
             515.00,1920.60 523.00,1922.60 523.00,1922.60
             523.00,1922.60 529.00,1925.04 529.00,1925.04
             529.00,1925.04 537.00,1926.99 537.00,1926.99
             537.00,1926.99 543.00,1929.33 543.00,1929.33
             543.00,1929.33 553.00,1931.49 553.00,1931.49
             553.00,1931.49 561.00,1934.22 561.00,1934.22
             561.00,1934.22 569.00,1935.79 569.00,1935.79
             569.00,1935.79 576.00,1938.37 576.00,1938.37
             576.00,1938.37 584.00,1939.68 584.00,1939.68
             584.00,1939.68 594.00,1943.59 594.00,1943.59
             594.00,1943.59 602.00,1944.57 602.00,1944.57
             602.00,1944.57 610.00,1948.00 610.00,1948.00
             612.50,1948.57 614.69,1947.70 619.00,1948.94
             619.00,1948.94 627.00,1952.41 627.00,1952.41
             630.35,1953.30 631.74,1951.79 638.00,1953.24
             638.00,1953.24 648.00,1956.61 648.00,1956.61
             648.00,1956.61 658.00,1957.47 658.00,1957.47
             662.37,1958.31 664.23,1959.79 667.00,1960.51
             667.00,1960.51 679.00,1962.02 679.00,1962.02
             684.58,1963.25 685.77,1964.66 689.00,1965.51
             689.00,1965.51 701.00,1966.53 701.00,1966.53
             705.53,1967.62 707.37,1970.05 711.00,1970.43
             713.38,1970.66 716.52,1969.42 723.00,1970.43
             732.54,1971.94 733.21,1974.47 737.00,1975.22
             739.82,1975.36 742.23,1973.46 752.00,1975.22
             757.99,1976.69 759.17,1978.94 762.00,1979.65
             764.09,1980.17 768.16,1979.04 771.00,1979.03
             778.65,1979.00 782.49,1980.89 788.00,1986.00
             796.52,1982.01 797.13,1982.89 806.00,1983.84
             809.71,1984.23 812.24,1984.21 816.00,1985.30
             819.15,1986.22 822.07,1988.28 825.00,1988.43
             825.00,1988.43 832.00,1987.58 832.00,1987.58
             837.75,1987.45 852.23,1988.29 856.98,1991.09
             859.48,1992.55 860.32,1993.79 862.00,1996.00
             864.22,1994.67 866.47,1993.08 869.00,1992.43
             874.25,1991.07 897.58,1993.08 904.00,1993.85
             912.83,1994.90 919.38,1995.53 920.00,2006.00
             920.00,2006.00 924.00,2006.00 924.00,2006.00
             926.44,1991.40 939.57,1996.87 950.00,1997.00
             950.00,1997.00 969.00,1997.00 969.00,1997.00
             969.00,1997.00 984.00,1998.00 984.00,1998.00
             984.00,1998.00 1011.00,1999.28 1011.00,1999.28
             1014.85,1999.74 1021.56,2000.40 1025.00,2001.61
             1031.18,2003.77 1030.11,2005.85 1038.00,2005.85
             1038.00,2005.85 1055.00,2005.85 1055.00,2005.85
             1059.29,2004.76 1060.12,2002.37 1068.00,2000.67
             1068.00,2000.67 1096.00,1997.96 1096.00,1997.96
             1096.00,1997.96 1110.00,1997.96 1110.00,1997.96
             1110.00,1997.96 1122.00,1996.98 1122.00,1996.98
             1122.00,1996.98 1141.00,1996.98 1141.00,1996.98
             1141.00,1996.98 1149.00,1996.09 1149.00,1996.09
             1157.42,1995.52 1163.87,1996.24 1165.00,2006.00
             1165.00,2006.00 1169.00,2006.00 1169.00,2006.00
             1170.00,1995.38 1175.91,1995.14 1185.00,1993.87
             1190.83,1993.06 1215.27,1991.20 1220.00,1992.43
             1222.53,1993.08 1224.78,1994.67 1227.00,1996.00
             1228.67,1993.92 1229.67,1992.50 1232.04,1991.09
             1236.73,1988.29 1251.29,1987.45 1257.00,1987.58
             1257.00,1987.58 1264.00,1988.43 1264.00,1988.43
             1267.33,1988.26 1269.17,1986.25 1274.00,1985.04
             1277.30,1984.22 1290.90,1982.77 1294.00,1983.34
             1294.00,1983.34 1302.00,1986.00 1302.00,1986.00
             1310.01,1975.61 1321.96,1980.27 1326.00,1979.82
             1329.07,1979.49 1330.53,1977.27 1335.00,1975.97
             1341.99,1973.86 1347.14,1974.63 1354.00,1975.97
             1358.50,1971.29 1364.63,1970.03 1371.00,1970.01
             1374.00,1970.03 1377.17,1970.91 1380.00,1970.01
             1380.00,1970.01 1387.00,1966.94 1387.00,1966.94
             1391.90,1965.51 1395.73,1966.32 1399.00,1965.78
             1399.00,1965.78 1409.00,1962.25 1409.00,1962.25
             1415.19,1960.65 1418.00,1961.30 1421.00,1960.73
             1421.00,1960.73 1431.00,1957.47 1431.00,1957.47
             1431.00,1957.47 1442.00,1956.37 1442.00,1956.37
             1445.73,1955.34 1447.14,1953.85 1453.00,1952.62
             1453.00,1952.62 1462.00,1952.62 1462.00,1952.62
             1462.00,1952.62 1471.00,1948.79 1471.00,1948.79
             1474.75,1947.75 1476.57,1948.56 1479.00,1948.00
             1479.00,1948.00 1486.00,1944.87 1486.00,1944.87
             1489.47,1943.66 1492.09,1944.29 1495.00,1943.59
             1495.00,1943.59 1504.00,1939.94 1504.00,1939.94
             1504.00,1939.94 1513.00,1938.37 1513.00,1938.37
             1513.00,1938.37 1520.00,1935.79 1520.00,1935.79
             1520.00,1935.79 1528.00,1934.30 1528.00,1934.30
             1528.00,1934.30 1536.00,1931.51 1536.00,1931.51
             1536.00,1931.51 1546.00,1929.38 1546.00,1929.38
             1546.00,1929.38 1566.00,1922.60 1566.00,1922.60
             1566.00,1922.60 1574.00,1920.60 1574.00,1920.60
             1574.00,1920.60 1581.00,1917.94 1581.00,1917.94
             1581.00,1917.94 1588.00,1916.33 1588.00,1916.33
             1588.00,1916.33 1595.00,1913.55 1595.00,1913.55
             1595.00,1913.55 1601.00,1912.46 1601.00,1912.46
             1601.00,1912.46 1608.00,1909.48 1608.00,1909.48
             1608.00,1909.48 1616.00,1907.41 1616.00,1907.41
             1616.00,1907.41 1635.00,1900.68 1635.00,1900.68
             1635.00,1900.68 1640.00,1899.46 1640.00,1899.46
             1640.00,1899.46 1647.00,1896.14 1647.00,1896.14
             1647.00,1896.14 1664.00,1890.19 1664.00,1890.19
             1664.00,1890.19 1683.00,1882.84 1683.00,1882.84
             1683.00,1882.84 1689.00,1881.20 1689.00,1881.20
             1708.68,1873.94 1728.94,1864.94 1741.32,1847.00
             1742.95,1844.64 1749.96,1830.53 1750.59,1828.00
             1752.57,1819.95 1750.03,1811.49 1760.00,1808.00
             1760.00,1808.00 1760.00,1046.00 1760.00,1046.00
             1749.67,1042.29 1753.11,1033.02 1749.93,1025.00
             1744.96,1012.43 1738.89,1004.74 1729.58,995.17
             1722.93,988.34 1709.97,981.13 1701.00,977.76
             1701.00,977.76 1693.00,975.41 1693.00,975.41
             1693.00,975.41 1650.00,959.89 1650.00,959.89
             1650.00,959.89 1644.00,958.36 1644.00,958.36
             1644.00,958.36 1632.00,953.61 1632.00,953.61
             1625.42,950.74 1613.43,939.33 1623.11,933.08
             1624.91,931.92 1626.96,931.49 1629.00,931.00
             1629.00,931.00 1629.00,717.00 1629.00,717.00
             1629.00,717.00 1629.00,610.00 1629.00,610.00
             1628.96,607.41 1629.00,603.62 1627.15,601.59
             1624.76,598.98 1620.05,600.58 1617.53,593.00
             1615.39,586.56 1615.26,576.82 1614.96,570.00
             1614.61,562.05 1613.10,554.00 1614.21,546.00
             1614.21,546.00 1616.00,538.00 1616.00,538.00
             1609.96,532.66 1609.12,522.73 1609.51,515.00
             1609.99,505.48 1607.32,506.75 1606.00,498.00
             1606.00,498.00 1604.51,485.00 1604.51,485.00
             1604.51,485.00 1601.53,477.00 1601.53,477.00
             1601.53,477.00 1600.59,469.00 1600.59,469.00
             1600.59,469.00 1597.25,460.00 1597.25,460.00
             1597.25,460.00 1595.37,450.00 1595.37,450.00
             1595.37,450.00 1592.53,442.00 1592.53,442.00
             1592.53,442.00 1591.32,435.00 1591.32,435.00
             1591.32,435.00 1584.12,416.00 1584.12,416.00
             1584.12,416.00 1579.84,404.00 1579.84,404.00
             1579.84,404.00 1578.32,398.00 1578.32,398.00
             1578.32,398.00 1575.25,391.00 1575.25,391.00
             1575.25,391.00 1573.15,384.00 1573.15,384.00
             1573.15,384.00 1562.62,362.00 1562.62,362.00
             1562.62,362.00 1548.06,332.00 1548.06,332.00
             1548.06,332.00 1532.53,307.00 1532.53,307.00
             1518.52,284.88 1503.55,263.58 1487.33,243.00
             1487.33,243.00 1460.41,213.83 1460.41,213.83
             1445.06,197.40 1429.12,181.19 1411.91,166.66
             1411.91,166.66 1397.00,155.35 1397.00,155.35
             1371.81,136.15 1345.76,117.51 1318.00,102.14
             1318.00,102.14 1297.00,91.97 1297.00,91.97
             1297.00,91.97 1266.00,76.90 1266.00,76.90
             1266.00,76.90 1260.00,75.21 1260.00,75.21
             1260.00,75.21 1252.00,71.69 1252.00,71.69
             1252.00,71.69 1246.00,70.32 1246.00,70.32
             1246.00,70.32 1215.00,58.99 1215.00,58.99
             1215.00,58.99 1207.00,57.48 1207.00,57.48
             1207.00,57.48 1199.00,54.63 1199.00,54.63
             1199.00,54.63 1190.00,53.10 1190.00,53.10
             1190.00,53.10 1182.00,50.45 1182.00,50.45
             1182.00,50.45 1172.00,48.48 1172.00,48.48
             1172.00,48.48 1164.00,45.41 1164.00,45.41
             1164.00,45.41 1150.00,43.88 1150.00,43.88
             1140.26,41.70 1146.52,39.95 1134.00,40.82
             1123.02,41.58 1115.72,36.13 1108.00,36.00
             1108.00,36.00 1088.00,36.00 1088.00,36.00
             1082.31,35.97 1063.06,34.35 1058.00,32.83
             1051.06,30.74 1052.00,27.55 1045.99,27.06
             1036.48,26.28 1038.84,31.51 1029.00,33.54
             1018.71,35.65 998.85,36.14 988.00,36.00
             982.63,35.93 981.96,35.29 977.00,34.00 Z
           M 1422.00,552.00
           C 1423.79,554.02 1425.24,555.51 1426.43,558.00
             1429.87,565.23 1429.04,586.27 1429.00,595.00
             1428.96,603.27 1427.80,606.17 1419.00,607.00
             1419.00,607.00 1419.00,883.00 1419.00,883.00
             1420.91,883.41 1422.19,883.53 1423.87,884.74
             1432.65,891.05 1421.67,901.43 1416.00,892.00
             1409.57,893.15 1396.14,894.47 1392.17,887.79
             1391.09,885.96 1391.12,884.03 1391.00,882.00
             1388.25,886.15 1387.25,887.65 1382.00,887.96
             1371.78,888.54 1369.85,884.35 1366.42,883.72
             1364.94,883.12 1361.81,883.87 1360.00,883.72
             1350.27,884.43 1346.76,880.94 1343.00,880.10
             1335.76,878.47 1320.91,882.22 1315.00,872.00
             1308.03,876.59 1295.88,875.71 1288.00,873.51
             1288.00,873.51 1280.00,870.69 1280.00,870.69
             1280.00,870.69 1264.00,870.69 1264.00,870.69
             1264.00,870.69 1253.00,869.06 1253.00,869.06
             1253.00,869.06 1246.00,866.66 1246.00,866.66
             1246.00,866.66 1226.00,866.00 1226.00,866.00
             1219.92,865.93 1203.68,865.56 1199.85,860.61
             1198.16,858.41 1198.13,855.63 1198.00,853.00
             1198.00,853.00 1196.00,853.00 1196.00,853.00
             1195.10,860.74 1192.28,861.95 1185.00,862.00
             1175.67,862.06 1166.24,862.01 1157.00,860.56
             1153.60,860.03 1148.78,859.24 1146.31,856.70
             1143.83,854.13 1144.04,851.29 1144.00,848.06
             1144.00,848.06 1136.30,848.06 1136.30,848.06
             1136.30,848.06 1129.89,856.15 1129.89,856.15
             1129.89,856.15 1119.00,858.00 1119.00,858.00
             1119.00,858.00 1077.00,858.00 1077.00,858.00
             1077.00,858.00 1060.00,857.00 1060.00,857.00
             1060.00,857.00 1029.00,857.00 1029.00,857.00
             1029.00,857.00 1012.00,858.00 1012.00,858.00
             1012.00,858.00 972.00,858.00 972.00,858.00
             972.00,858.00 960.04,856.07 960.04,856.07
             960.04,856.07 952.73,848.10 952.73,848.10
             952.73,848.10 946.00,848.10 946.00,848.10
             945.97,850.86 946.22,854.11 944.26,856.44
             941.76,859.43 936.65,860.05 933.00,860.57
             923.09,862.00 913.01,862.18 903.00,862.00
             896.09,861.87 893.80,859.94 893.00,853.00
             891.58,855.63 890.52,859.79 888.69,861.49
             885.69,864.28 879.89,864.69 876.00,865.15
             876.00,865.15 860.00,866.09 860.00,866.09
             860.00,866.09 852.00,866.81 852.00,866.81
             852.00,866.81 844.00,866.81 844.00,866.81
             844.00,866.81 835.00,869.32 835.00,869.32
             829.78,870.54 823.36,871.06 818.00,870.83
             818.00,870.83 809.00,870.83 809.00,870.83
             809.00,870.83 801.00,873.51 801.00,873.51
             793.12,875.71 780.97,876.59 774.00,872.00
             769.49,880.86 756.44,879.19 748.00,879.87
             743.92,880.20 741.49,882.77 735.00,883.50
             728.89,884.58 725.12,883.08 723.28,883.50
             720.02,883.70 718.57,886.99 712.00,887.82
             705.36,888.65 701.07,887.95 699.00,881.00
             698.30,883.27 697.69,886.85 696.26,888.61
             691.51,894.50 682.27,892.04 676.00,893.13
             672.04,893.82 664.03,899.15 662.33,891.89
             661.06,886.43 665.53,883.95 670.00,883.00
             670.00,883.00 670.00,607.00 670.00,607.00
             666.46,606.67 663.14,606.29 661.17,602.87
             659.89,600.63 660.01,597.52 660.00,595.00
             660.00,595.00 660.93,567.00 660.93,567.00
             661.47,561.15 661.31,557.04 667.00,554.00
             661.87,540.65 665.61,536.48 668.47,524.00
             668.47,524.00 669.79,516.00 669.79,516.00
             669.79,516.00 672.88,507.00 672.88,507.00
             672.88,507.00 674.35,499.00 674.35,499.00
             674.35,499.00 677.37,491.00 677.37,491.00
             677.37,491.00 678.63,485.00 678.63,485.00
             678.63,485.00 681.05,479.00 681.05,479.00
             681.05,479.00 685.54,466.00 685.54,466.00
             685.54,466.00 687.97,458.00 687.97,458.00
             695.54,438.75 712.95,408.57 724.39,391.00
             724.39,391.00 733.19,378.99 733.19,378.99
             741.83,366.74 748.56,357.88 758.97,347.00
             764.42,341.30 766.68,336.49 775.00,336.00
             775.48,327.87 781.07,324.63 786.91,319.46
             786.91,319.46 798.00,309.21 798.00,309.21
             798.00,309.21 817.99,294.19 817.99,294.19
             817.99,294.19 860.00,267.17 860.00,267.17
             860.00,267.17 874.00,260.27 874.00,260.27
             881.45,256.34 889.12,251.98 897.00,248.98
             897.00,248.98 904.00,247.04 904.00,247.04
             904.00,247.04 923.00,240.10 923.00,240.10
             923.00,240.10 930.00,238.38 930.00,238.38
             930.00,238.38 937.00,235.62 937.00,235.62
             937.00,235.62 946.00,233.82 946.00,233.82
             946.00,233.82 954.00,230.94 954.00,230.94
             954.00,230.94 963.00,229.47 963.00,229.47
             963.00,229.47 971.00,226.92 971.00,226.92
             977.91,225.11 986.36,225.51 993.00,228.00
             996.57,221.31 1002.46,222.37 1009.00,221.91
             1009.00,221.91 1019.00,221.05 1019.00,221.05
             1019.00,221.05 1037.00,221.05 1037.00,221.05
             1037.00,221.05 1044.58,222.70 1044.58,222.70
             1044.58,222.70 1052.00,221.05 1052.00,221.05
             1052.00,221.05 1068.00,221.05 1068.00,221.05
             1068.00,221.05 1088.00,222.47 1088.00,222.47
             1093.76,223.58 1095.18,225.91 1097.58,226.51
             1097.58,226.51 1106.00,226.00 1106.00,226.00
             1119.57,225.82 1115.48,227.06 1126.00,229.47
             1126.00,229.47 1134.00,230.68 1134.00,230.68
             1134.00,230.68 1142.00,233.55 1142.00,233.55
             1142.00,233.55 1152.00,235.54 1152.00,235.54
             1152.00,235.54 1159.00,238.33 1159.00,238.33
             1159.00,238.33 1165.00,239.78 1165.00,239.78
             1165.00,239.78 1173.00,242.78 1173.00,242.78
             1173.00,242.78 1192.00,248.97 1192.00,248.97
             1207.50,255.06 1231.74,268.48 1246.00,277.47
             1261.66,287.34 1277.93,297.71 1291.91,309.92
             1291.91,309.92 1311.73,328.44 1311.73,328.44
             1311.73,328.44 1315.58,334.45 1315.58,334.45
             1315.58,334.45 1322.56,339.06 1322.56,339.06
             1322.56,339.06 1336.84,354.00 1336.84,354.00
             1355.41,374.81 1377.54,409.80 1389.96,435.00
             1389.96,435.00 1400.81,457.00 1400.81,457.00
             1400.81,457.00 1410.45,485.00 1410.45,485.00
             1410.45,485.00 1411.63,491.00 1411.63,491.00
             1411.63,491.00 1414.70,499.00 1414.70,499.00
             1414.70,499.00 1416.40,508.00 1416.40,508.00
             1416.40,508.00 1419.01,515.00 1419.01,515.00
             1419.01,515.00 1420.31,522.00 1420.31,522.00
             1422.09,530.94 1428.62,543.73 1422.00,552.00 Z
           M 1042.00,1116.33
           C 1043.64,1116.22 1044.25,1116.00 1046.00,1116.33
             1049.09,1116.67 1051.06,1118.48 1054.00,1118.57
             1054.00,1118.57 1061.00,1117.47 1061.00,1117.47
             1061.00,1117.47 1076.00,1118.30 1076.00,1118.30
             1081.01,1119.05 1082.69,1120.62 1086.00,1121.51
             1086.00,1121.51 1092.00,1122.53 1092.00,1122.53
             1092.00,1122.53 1109.00,1128.06 1109.00,1128.06
             1113.74,1130.07 1134.06,1141.42 1138.00,1144.46
             1146.12,1150.74 1146.01,1152.63 1149.21,1155.39
             1152.09,1157.89 1156.61,1159.95 1160.83,1164.17
             1160.83,1164.17 1167.58,1172.83 1167.58,1172.83
             1167.58,1172.83 1177.32,1184.00 1177.32,1184.00
             1177.32,1184.00 1193.77,1211.00 1193.77,1211.00
             1198.68,1221.09 1197.58,1222.44 1200.22,1231.00
             1200.22,1231.00 1203.45,1240.00 1203.45,1240.00
             1204.43,1245.11 1202.93,1246.60 1203.45,1250.00
             1203.45,1250.00 1206.54,1259.00 1206.54,1259.00
             1208.31,1267.70 1208.01,1275.25 1208.00,1284.00
             1207.98,1299.99 1204.52,1302.07 1203.69,1306.00
             1203.69,1306.00 1203.69,1314.00 1203.69,1314.00
             1203.69,1314.00 1197.80,1333.00 1197.80,1333.00
             1188.90,1355.86 1182.62,1365.77 1166.07,1384.00
             1166.07,1384.00 1156.00,1394.96 1156.00,1394.96
             1150.98,1399.79 1145.72,1403.71 1140.00,1407.65
             1137.58,1409.32 1131.42,1413.10 1130.02,1415.37
             1128.77,1417.40 1129.00,1420.67 1129.00,1423.00
             1129.00,1423.00 1129.00,1674.00 1129.00,1674.00
             1128.99,1677.80 1128.19,1688.66 1127.16,1692.00
             1127.16,1692.00 1124.83,1698.00 1124.83,1698.00
             1124.83,1698.00 1123.13,1705.00 1123.13,1705.00
             1121.77,1708.73 1115.49,1718.78 1112.88,1721.98
             1109.41,1726.25 1108.11,1726.52 1105.44,1729.37
             1100.68,1734.45 1097.26,1740.14 1091.00,1743.93
             1086.93,1746.39 1072.45,1752.73 1068.00,1753.75
             1068.00,1753.75 1059.00,1753.75 1059.00,1753.75
             1055.70,1754.80 1053.13,1757.27 1046.00,1757.82
             1037.65,1758.45 1033.25,1754.41 1030.00,1753.63
             1027.30,1753.15 1025.40,1754.32 1021.00,1753.63
             1016.55,1752.73 1002.06,1746.39 998.00,1743.93
             991.74,1740.14 988.32,1734.45 983.56,1729.37
             983.56,1729.37 978.62,1724.79 978.62,1724.79
             975.35,1721.30 967.68,1709.43 965.99,1705.00
             965.99,1705.00 964.32,1698.00 964.32,1698.00
             964.32,1698.00 961.55,1691.00 961.55,1691.00
             961.55,1691.00 960.00,1670.00 960.00,1670.00
             960.00,1670.00 960.00,1501.00 960.00,1501.00
             960.00,1501.00 960.00,1421.00 960.00,1421.00
             959.96,1419.06 960.01,1417.06 958.98,1415.32
             957.58,1412.99 952.38,1409.76 950.00,1408.17
             942.83,1403.37 942.93,1403.49 936.42,1397.74
             920.53,1383.69 903.42,1362.73 895.20,1343.00
             895.20,1343.00 886.12,1317.00 886.12,1317.00
             884.68,1310.38 885.80,1308.70 885.34,1306.00
             885.34,1306.00 882.32,1297.00 882.32,1297.00
             880.89,1289.43 880.91,1281.67 881.00,1274.00
             881.05,1269.73 882.19,1259.97 883.47,1256.00
             883.47,1256.00 885.59,1250.00 885.59,1250.00
             885.59,1250.00 885.59,1242.00 885.59,1242.00
             885.99,1236.92 887.94,1234.34 889.22,1230.00
             889.22,1230.00 890.99,1222.00 890.99,1222.00
             893.56,1213.74 898.02,1206.36 902.43,1199.00
             910.59,1185.35 911.74,1184.71 921.42,1172.83
             923.92,1169.76 925.11,1167.27 928.17,1164.29
             932.61,1159.96 937.09,1157.90 939.79,1155.47
             943.69,1151.99 941.81,1151.72 951.00,1144.62
             956.17,1140.62 972.76,1131.49 979.00,1128.52
             984.88,1125.73 996.51,1123.27 1003.00,1121.60
             1007.05,1120.57 1008.52,1118.79 1014.00,1118.17
             1014.00,1118.17 1028.00,1117.47 1028.00,1117.47
             1031.06,1117.62 1033.32,1118.89 1036.00,1118.49
             1036.00,1118.49 1042.00,1116.33 1042.00,1116.33 Z" />
</svg>
